<?xml version="1.0" standalone="no"?>
<!DOCTYPE svg PUBLIC "-//W3C//DTD SVG 20010904//EN"
 "http://www.w3.org/TR/2001/REC-SVG-20010904/DTD/svg10.dtd">
<svg version="1.0" xmlns="http://www.w3.org/2000/svg"
 width="1292.000000pt" height="451.000000pt" viewBox="0 0 1292.000000 451.000000"
 preserveAspectRatio="xMidYMid meet">

<g transform="translate(0.000000,451.000000) scale(0.100000,-0.100000)"
fill="#000000" stroke="none">
<path d="M10277 4282 l-107 -107 0 -178 0 -177 85 0 84 0 20 -45 c14 -33 29
-50 53 -59 l33 -14 15 56 15 57 158 3 157 3 0 177 0 177 -108 108 -107 107
-95 0 -95 0 -108 -108z m391 -15 l102 -102 0 -163 0 -162 -290 0 -290 0 0 162
0 163 102 102 103 103 85 0 85 0 103 -103z"/>
<path d="M11162 4277 l-112 -112 0 -173 0 -172 94 0 94 0 23 -47 c13 -27 31
-49 39 -51 9 -1 26 18 42 48 l28 50 155 0 155 0 0 178 0 177 -108 108 -107
107 -95 0 -95 0 -113 -113z m396 -10 l102 -102 0 -163 0 -162 -290 0 -290 0 0
162 0 163 102 102 103 103 85 0 85 0 103 -103z"/>
<path d="M12052 4277 l-112 -112 0 -173 0 -172 115 0 116 0 20 -35 c12 -19 24
-35 29 -35 4 0 20 16 34 35 l27 35 145 0 144 0 0 173 0 172 -113 113 -112 112
-90 0 -90 0 -113 -113z m390 -14 l108 -108 0 -157 0 -158 -295 0 -295 0 0 160
0 160 106 105 105 105 82 0 82 0 107 -107z"/>
<path d="M9220 4280 c0 -5 11 -10 25 -10 19 0 37 -16 80 -74 30 -41 55 -80 55
-86 0 -6 -21 -39 -47 -74 -37 -49 -56 -66 -80 -71 -57 -11 -36 -25 37 -25 68
0 91 12 50 25 -19 6 -19 9 12 51 51 72 51 72 98 7 38 -54 40 -58 21 -61 -12
-2 -21 -8 -21 -13 0 -5 41 -9 90 -9 53 0 90 4 90 10 0 6 -11 10 -25 10 -20 0
-38 18 -90 88 -35 48 -63 92 -60 99 2 7 21 35 41 62 28 37 46 51 71 56 59 11
35 25 -42 25 -77 0 -94 -9 -50 -26 l25 -9 -33 -42 c-17 -23 -34 -42 -37 -43
-3 0 -20 22 -38 48 -31 44 -32 47 -12 50 11 2 20 8 20 13 0 5 -40 9 -90 9 -53
0 -90 -4 -90 -10z"/>
<path d="M5720 4090 l0 -130 85 0 c69 0 85 3 85 15 0 12 -14 15 -65 15 l-65 0
0 115 c0 108 -1 115 -20 115 -19 0 -20 -7 -20 -130z"/>
<path d="M7390 4090 c0 -123 1 -130 20 -130 18 0 20 7 20 55 0 61 10 72 53 56
19 -7 31 -24 44 -61 12 -34 23 -50 35 -50 10 0 18 4 18 9 0 17 -38 99 -49 106
-8 4 -1 17 19 35 36 34 38 53 5 85 -21 22 -33 25 -95 25 l-70 0 0 -130z m141
79 c19 -31 0 -50 -55 -56 l-46 -6 0 43 0 43 46 -6 c26 -2 50 -11 55 -18z"/>
<path d="M5929 4121 c-28 -23 -20 -38 11 -21 26 14 65 6 73 -14 4 -10 -5 -15
-31 -20 -75 -12 -105 -59 -60 -90 29 -20 62 -20 79 0 11 14 13 14 21 0 10 -19
44 -21 54 -5 4 7 -1 16 -10 21 -12 7 -16 23 -16 63 0 44 -4 57 -22 69 -30 21
-71 20 -99 -3z m91 -90 c0 -18 -33 -42 -54 -39 -26 4 -33 35 -9 41 32 8 63 7
63 -2z"/>
<path d="M6100 4050 c0 -83 1 -90 20 -90 17 0 20 7 20 49 0 60 6 78 32 92 33
18 48 -5 48 -77 0 -57 2 -64 20 -64 18 0 20 7 20 70 0 57 -4 74 -20 90 -22 22
-51 26 -81 10 -13 -7 -19 -7 -19 0 0 5 -9 10 -20 10 -19 0 -20 -7 -20 -90z"/>
<path d="M6315 4115 c-51 -50 -18 -155 49 -155 14 0 28 5 31 10 10 17 25 11
25 -10 0 -11 -11 -27 -25 -36 -20 -13 -31 -14 -56 -5 -40 14 -39 14 -39 -4 0
-39 85 -47 127 -11 26 23 28 28 31 130 4 91 2 106 -11 106 -9 0 -19 -5 -22
-10 -4 -7 -12 -7 -25 0 -31 16 -59 12 -85 -15z m86 -15 c37 -20 14 -110 -28
-110 -20 0 -53 37 -53 60 0 21 33 60 51 60 6 0 19 -5 30 -10z"/>
<path d="M6500 4091 c0 -110 28 -148 91 -124 16 6 29 7 29 2 0 -5 9 -9 20 -9
19 0 20 7 20 90 0 83 -1 90 -20 90 -18 0 -20 -7 -20 -58 0 -47 -4 -63 -21 -78
-35 -31 -53 -9 -57 70 -3 58 -5 66 -22 66 -17 0 -20 -7 -20 -49z"/>
<path d="M6719 4121 c-28 -23 -20 -38 11 -21 26 14 65 6 73 -14 4 -10 -5 -15
-31 -20 -75 -12 -105 -59 -60 -90 29 -20 62 -20 79 0 11 14 13 14 21 0 10 -19
44 -21 54 -5 4 7 -1 16 -10 21 -12 7 -16 23 -16 63 0 44 -4 57 -22 69 -30 21
-71 20 -99 -3z m91 -90 c0 -18 -33 -42 -54 -39 -26 4 -33 35 -9 41 32 8 63 7
63 -2z"/>
<path d="M6915 4115 c-51 -50 -18 -155 49 -155 14 0 28 5 31 10 10 17 25 11
25 -10 0 -11 -11 -27 -25 -36 -20 -13 -31 -14 -56 -5 -40 14 -39 14 -39 -4 0
-39 85 -47 127 -11 26 23 28 28 31 130 4 91 2 106 -11 106 -9 0 -19 -5 -22
-10 -4 -7 -12 -7 -25 0 -31 16 -59 12 -85 -15z m86 -15 c37 -20 14 -110 -28
-110 -20 0 -53 37 -53 60 0 21 33 60 51 60 6 0 19 -5 30 -10z"/>
<path d="M7127 4129 c-11 -6 -25 -26 -33 -45 -35 -83 60 -160 134 -108 12 8
22 22 22 30 0 17 0 17 -39 -2 -31 -16 -34 -15 -59 3 -46 34 -39 43 32 43 60 0
66 2 66 20 0 51 -76 86 -123 59z m67 -25 c30 -11 16 -24 -25 -24 -36 0 -40 2
-29 15 13 16 29 19 54 9z"/>
<path d="M7637 4129 c-11 -6 -25 -26 -33 -45 -35 -83 60 -160 134 -108 12 8
22 22 22 30 0 17 0 17 -39 -2 -31 -16 -34 -15 -59 3 -46 34 -39 43 32 43 60 0
66 2 66 20 0 51 -76 86 -123 59z m67 -25 c30 -11 16 -24 -25 -24 -36 0 -40 2
-29 15 13 16 29 19 54 9z"/>
<path d="M7802 4124 c-14 -10 -22 -24 -20 -37 3 -21 20 -32 82 -56 23 -10 26
-14 16 -26 -16 -19 -37 -19 -72 -1 -26 14 -28 13 -28 -4 0 -45 86 -55 126 -15
24 24 25 28 11 48 -8 12 -32 27 -53 33 -21 6 -40 16 -42 22 -6 18 28 26 59 15
25 -10 29 -9 29 7 0 33 -69 42 -108 14z"/>
<path d="M7970 4010 c0 -109 2 -130 15 -130 11 0 15 12 15 50 0 47 1 50 19 40
47 -25 106 8 117 64 14 76 -66 137 -118 89 -17 -15 -18 -15 -18 0 0 10 -7 17
-15 17 -13 0 -15 -21 -15 -130z m112 83 c46 -41 0 -117 -56 -92 -32 15 -35 60
-6 89 24 24 38 25 62 3z"/>
<path d="M8204 4125 c-34 -23 -49 -69 -34 -105 34 -81 143 -78 170 4 26 80
-67 150 -136 101z m86 -35 c11 -11 20 -29 20 -40 0 -23 -33 -60 -55 -60 -22 0
-55 37 -55 60 0 23 33 60 55 60 8 0 24 -9 35 -20z"/>
<path d="M8370 4050 c0 -83 1 -90 20 -90 17 0 20 7 20 49 0 60 6 78 32 92 33
18 48 -5 48 -77 0 -57 2 -64 20 -64 18 0 20 7 20 70 0 57 -4 74 -20 90 -22 22
-51 26 -81 10 -13 -7 -19 -7 -19 0 0 5 -9 10 -20 10 -19 0 -20 -7 -20 -90z"/>
<path d="M8582 4124 c-14 -10 -22 -24 -20 -37 3 -21 20 -32 82 -56 23 -10 26
-14 16 -26 -16 -19 -37 -19 -72 -1 -26 14 -28 13 -28 -4 0 -45 86 -55 126 -15
24 24 25 28 11 48 -8 12 -32 27 -53 33 -21 6 -40 16 -42 22 -6 18 28 26 59 15
25 -10 29 -9 29 7 0 33 -69 42 -108 14z"/>
<path d="M8767 4129 c-11 -6 -25 -26 -33 -45 -35 -83 60 -160 134 -108 12 8
22 22 22 30 0 17 0 17 -39 -2 -31 -16 -34 -15 -59 3 -46 34 -39 43 32 43 60 0
66 2 66 20 0 51 -76 86 -123 59z m67 -25 c30 -11 16 -24 -25 -24 -36 0 -40 2
-29 15 13 16 29 19 54 9z"/>
<path d="M9683 4013 c-7 -2 -13 -11 -13 -19 0 -16 21 -19 36 -4 12 12 54 1 54
-15 0 -7 -16 -15 -36 -18 -43 -7 -64 -23 -64 -48 0 -35 27 -48 100 -47 68 0
91 10 50 21 -17 4 -20 14 -20 55 0 41 -4 54 -22 66 -22 16 -60 20 -85 9z m87
-93 c0 -24 -34 -43 -60 -35 -27 9 -25 34 3 45 37 15 57 12 57 -10z"/>
<path d="M3422 3187 c-12 -13 -22 -27 -22 -33 0 -5 -5 -26 -11 -46 -8 -31 -15
-38 -34 -38 -14 0 -25 -4 -25 -10 0 -5 11 -10 24 -10 l24 0 -14 -72 c-8 -40
-19 -101 -25 -136 -11 -61 -40 -114 -55 -100 -4 4 -1 15 6 23 10 11 10 19 2
27 -15 15 -42 2 -42 -20 0 -28 25 -45 55 -38 36 9 60 65 86 199 23 116 23 117
51 117 15 0 28 5 28 10 0 6 -11 10 -25 10 -29 0 -29 1 -13 69 6 27 18 53 26
56 21 8 27 -2 12 -21 -11 -13 -11 -17 0 -24 31 -19 55 21 28 48 -19 19 -53 14
-76 -11z"/>
<path d="M460 2990 l0 -130 85 0 c68 0 85 3 85 15 0 10 -16 15 -62 17 l-63 3
-3 113 c-2 104 -4 112 -22 112 -19 0 -20 -7 -20 -130z"/>
<path d="M2130 2990 c0 -123 1 -130 20 -130 18 0 20 8 22 103 l3 102 38 -67
c21 -38 41 -68 45 -68 4 0 25 31 47 68 l40 67 3 -102 c2 -83 6 -103 17 -103
12 0 15 22 15 130 0 128 0 130 -22 130 -18 0 -31 -15 -58 -65 -19 -36 -38 -65
-42 -65 -3 0 -23 29 -43 65 -29 52 -41 65 -60 65 l-25 0 0 -130z"/>
<path d="M2760 3071 l0 -49 -29 11 c-40 15 -78 -3 -96 -46 -32 -78 36 -154
106 -117 13 7 19 7 19 0 0 -5 9 -10 20 -10 19 0 20 7 20 130 0 123 -1 130 -20
130 -17 0 -20 -7 -20 -49z m-19 -71 c25 -14 25 -64 -1 -90 -11 -11 -24 -20
-30 -20 -17 0 -50 39 -50 60 0 21 33 60 51 60 6 0 19 -5 30 -10z"/>
<path d="M3040 2990 c0 -109 2 -130 15 -130 13 0 15 21 15 130 0 109 -2 130
-15 130 -13 0 -15 -21 -15 -130z"/>
<path d="M673 3028 c-26 -13 -32 -44 -7 -34 44 17 62 17 79 -1 18 -17 17 -18
-26 -26 -75 -15 -103 -59 -57 -91 29 -20 62 -20 79 0 11 14 13 14 21 0 10 -19
44 -21 54 -5 4 7 -1 16 -10 21 -12 7 -16 23 -16 63 0 44 -4 57 -22 69 -26 18
-63 20 -95 4z m75 -110 c-18 -27 -61 -31 -66 -6 -3 17 14 25 57 27 22 1 23 0
9 -21z"/>
<path d="M840 2950 c0 -83 1 -90 20 -90 17 0 20 7 20 49 0 60 6 78 32 92 33
18 48 -5 48 -77 0 -57 2 -64 20 -64 18 0 20 7 20 70 0 57 -4 74 -20 90 -22 22
-51 26 -81 10 -13 -7 -19 -7 -19 0 0 5 -9 10 -20 10 -19 0 -20 -7 -20 -90z"/>
<path d="M1065 3015 c-67 -66 5 -188 86 -145 30 17 25 -26 -6 -46 -20 -13 -31
-14 -56 -5 -40 14 -39 14 -39 -4 0 -39 85 -47 127 -11 26 23 28 28 31 130 4
87 2 106 -10 106 -8 0 -19 -5 -25 -11 -8 -8 -13 -8 -17 0 -13 20 -66 12 -91
-14z m86 -15 c29 -16 26 -75 -5 -95 -13 -8 -31 -12 -40 -9 -24 9 -37 49 -26
78 13 34 38 43 71 26z"/>
<path d="M1250 2981 c0 -33 4 -71 10 -85 11 -30 51 -43 86 -27 15 6 24 7 24 1
0 -6 9 -10 20 -10 19 0 20 7 20 90 0 83 -1 90 -20 90 -18 0 -20 -7 -20 -60 0
-53 -3 -61 -25 -76 -39 -26 -55 -5 -55 72 0 57 -2 64 -20 64 -18 0 -20 -7 -20
-59z"/>
<path d="M1473 3028 c-26 -13 -32 -44 -7 -34 44 17 62 17 79 -1 18 -17 17 -18
-26 -26 -75 -15 -103 -59 -57 -91 29 -20 62 -20 79 0 11 14 13 14 21 0 10 -19
44 -21 54 -5 4 7 -1 16 -10 21 -12 7 -16 23 -16 63 0 44 -4 57 -22 69 -26 18
-63 20 -95 4z m75 -110 c-18 -27 -61 -31 -66 -6 -3 17 14 25 57 27 22 1 23 0
9 -21z"/>
<path d="M1655 3015 c-67 -66 5 -188 86 -145 30 17 25 -26 -6 -46 -20 -13 -31
-14 -56 -5 -40 14 -39 14 -39 -4 0 -39 85 -47 127 -11 26 23 28 28 31 130 4
87 2 106 -10 106 -8 0 -19 -5 -25 -11 -8 -8 -13 -8 -17 0 -13 20 -66 12 -91
-14z m86 -15 c29 -16 26 -75 -5 -95 -13 -8 -31 -12 -40 -9 -24 9 -37 49 -26
78 13 34 38 43 71 26z"/>
<path d="M1867 3029 c-9 -5 -24 -24 -33 -40 -30 -58 15 -129 81 -129 35 0 75
24 75 46 0 17 0 17 -38 -2 -35 -17 -64 -8 -82 26 -10 19 -7 20 55 20 62 0 65
1 65 24 0 48 -76 82 -123 55z m67 -25 c30 -11 16 -24 -25 -24 -36 0 -40 2 -29
15 13 16 29 19 54 9z"/>
<path d="M2453 3016 c-61 -52 -21 -156 60 -156 65 0 111 63 87 120 -26 63 -96
80 -147 36z m97 -26 c11 -11 20 -29 20 -40 0 -23 -33 -60 -55 -60 -22 0 -55
37 -55 60 0 23 33 60 55 60 8 0 24 -9 35 -20z"/>
<path d="M2877 3029 c-9 -5 -24 -24 -33 -40 -18 -37 -5 -90 29 -114 45 -32
127 -8 127 37 0 19 -2 20 -17 6 -35 -31 -61 -31 -90 -1 l-28 28 68 3 c63 3 67
4 67 27 0 47 -76 81 -123 54z m73 -34 c11 -13 7 -15 -30 -15 -37 0 -41 2 -30
15 7 8 20 15 30 15 10 0 23 -7 30 -15z"/>
<path d="M3639 2966 c-9 -36 -16 -45 -39 -49 -47 -10 -90 -54 -90 -93 0 -30 5
-37 36 -51 33 -16 35 -20 30 -53 -5 -34 4 -23 17 22 3 9 19 19 36 23 42 9 91
57 91 88 0 27 -41 67 -67 67 -9 0 -12 7 -9 18 13 43 18 72 12 72 -3 0 -11 -20
-17 -44z m-19 -62 c0 -9 -31 -129 -34 -132 -7 -7 -37 12 -46 28 -14 26 7 78
39 95 28 16 41 18 41 9z m54 -10 c23 -22 20 -59 -6 -88 -28 -30 -74 -47 -65
-23 3 9 11 35 17 59 20 77 25 82 54 52z"/>
<path d="M6655 2345 c-25 -12 -26 -14 -5 -9 14 4 29 10 35 15 12 12 5 11 -30
-6z"/>
<path d="M6580 2320 c-18 -12 -2 -12 25 0 13 6 15 9 5 9 -8 0 -22 -4 -30 -9z"/>
<path d="M7665 2300 c-11 -5 -43 -9 -70 -9 l-50 -1 -108 -108 -107 -107 0
-178 0 -177 315 0 315 0 0 178 0 177 -108 108 c-88 88 -113 107 -137 107 -23
0 -27 3 -15 10 13 9 13 10 0 9 -8 0 -24 -4 -35 -9z m167 -127 l108 -108 0
-162 0 -163 -295 0 -295 0 0 162 0 163 107 107 108 108 80 0 80 0 107 -107z"/>
<path d="M4665 2293 l-60 -4 -107 -107 -108 -107 0 -177 0 -178 310 0 310 0 0
178 0 177 -107 107 c-118 117 -121 118 -238 111z m227 -120 l108 -108 0 -162
0 -163 -295 0 -295 0 0 168 0 168 104 102 103 102 84 0 84 0 107 -107z"/>
<path d="M5550 2293 c-55 -4 -55 -4 -162 -111 l-108 -107 0 -177 0 -178 310 0
310 0 0 178 0 177 -107 107 c-119 118 -123 120 -243 111z m226 -115 l104 -102
0 -168 0 -168 -295 0 -295 0 0 162 0 163 107 107 108 108 84 0 84 0 103 -102z"/>
<path d="M6455 2293 c-49 -4 -53 -7 -157 -111 l-108 -107 0 -177 0 -178 310 0
310 0 0 178 0 177 -107 107 c-118 116 -127 120 -248 111z m236 -120 l109 -107
0 -163 0 -163 -295 0 -295 0 0 168 0 168 104 102 103 102 83 0 83 0 108 -107z"/>
<path d="M8418 2290 l-68 -5 -105 -105 -105 -105 0 -182 0 -183 310 0 310 0 0
178 0 177 -112 112 c-71 69 -122 112 -138 114 -14 2 -55 2 -92 -1z m220 -123
l102 -102 0 -168 0 -167 -292 2 -293 3 -3 160 -3 159 108 108 108 108 85 0 85
0 103 -103z"/>
<path d="M8999 2183 l-109 -107 0 -183 0 -183 310 0 310 0 0 178 0 177 -113
113 -112 112 -89 0 -89 0 -108 -107z m389 -16 l102 -102 0 -168 0 -167 -292 2
-293 3 -3 160 -3 159 108 108 108 108 85 0 85 0 103 -103z"/>
<path d="M3760 1696 l0 -53 -107 -7 c-133 -8 -208 -27 -298 -74 -190 -100
-316 -297 -332 -518 -20 -284 180 -560 463 -640 47 -14 118 -18 357 -21 267
-5 297 -3 297 11 0 14 -31 16 -288 16 -322 0 -354 4 -482 67 -139 68 -263 222
-305 379 -21 77 -21 231 0 308 25 94 83 194 155 267 118 120 266 179 446 179
l93 0 3 -58 3 -59 199 64 c109 36 196 66 194 68 -4 4 -382 125 -392 125 -3 0
-6 -24 -6 -54z"/>
<path d="M7773 1405 l-61 -185 54 0 54 0 2 -192 c2 -142 6 -192 16 -196 9 -3
12 40 12 192 l0 196 56 0 c41 0 55 3 52 13 -3 6 -31 90 -62 185 -32 94 -58
172 -59 172 -2 0 -30 -83 -64 -185z"/>
<path d="M2020 1560 c0 -5 8 -10 19 -10 15 0 32 -33 82 -155 80 -195 84 -196
148 -41 35 85 47 105 53 90 5 -11 25 -59 46 -109 56 -133 62 -131 141 60 57
139 66 155 87 155 13 0 24 5 24 10 0 6 -28 10 -65 10 -37 0 -65 -4 -65 -10 0
-5 9 -10 19 -10 11 0 22 -3 24 -7 3 -5 -15 -55 -38 -113 l-44 -105 -16 40
c-10 22 -30 71 -46 109 -16 37 -29 70 -29 72 0 2 11 4 25 4 14 0 25 5 25 10 0
6 -37 10 -90 10 -53 0 -90 -4 -90 -10 0 -5 11 -10 25 -10 18 0 28 -8 36 -27 8
-22 4 -40 -22 -105 -18 -43 -36 -78 -39 -78 -6 0 -90 192 -90 205 0 3 11 5 25
5 14 0 25 5 25 10 0 6 -35 10 -85 10 -50 0 -85 -4 -85 -10z"/>
<path d="M390 1410 c0 -122 1 -130 20 -130 16 0 19 8 22 58 l3 57 54 5 c85 9
117 65 66 115 -21 22 -33 25 -95 25 l-70 0 0 -130z m141 78 c12 -18 11 -24 -7
-42 -9 -9 -32 -16 -55 -16 -38 0 -39 1 -39 33 0 19 3 37 8 41 11 12 84 -1 93
-16z"/>
<path d="M940 1515 c0 -26 24 -35 32 -12 7 18 -2 37 -18 37 -8 0 -14 -10 -14
-25z"/>
<path d="M1510 1515 c0 -26 24 -35 32 -12 7 18 -2 37 -18 37 -8 0 -14 -10 -14
-25z"/>
<path d="M1400 1489 c0 -12 -8 -23 -20 -26 -23 -6 -27 -33 -5 -33 12 0 15 -13
15 -59 0 -68 17 -94 59 -89 33 4 42 35 9 34 -21 -1 -23 4 -26 57 -3 55 -2 57
23 57 16 0 25 6 25 15 0 9 -9 15 -25 15 -20 0 -25 5 -25 25 0 16 -6 25 -15 25
-9 0 -15 -9 -15 -21z"/>
<path d="M4360 1480 c0 -5 11 -10 25 -10 l25 0 0 -145 0 -145 -25 0 c-14 0
-25 -4 -25 -10 0 -6 35 -10 85 -10 50 0 85 4 85 10 0 6 -11 10 -25 10 -24 0
-25 2 -25 70 l0 70 75 0 75 0 0 -70 c0 -68 -1 -70 -25 -70 -14 0 -25 -4 -25
-10 0 -6 35 -10 85 -10 50 0 85 4 85 10 0 6 -11 10 -25 10 l-25 0 0 145 0 145
25 0 c14 0 25 5 25 10 0 6 -35 10 -85 10 -50 0 -85 -4 -85 -10 0 -5 11 -10 25
-10 24 0 25 -2 25 -65 l0 -65 -75 0 -75 0 0 65 c0 63 1 65 25 65 14 0 25 5 25
10 0 6 -35 10 -85 10 -50 0 -85 -4 -85 -10z"/>
<path d="M8040 1470 c0 -5 11 -10 25 -10 l25 0 0 -140 0 -140 -25 0 c-14 0
-25 -4 -25 -10 0 -6 35 -10 85 -10 50 0 85 4 85 10 0 6 -11 10 -25 10 -24 0
-25 2 -25 70 l0 70 75 0 75 0 0 -70 c0 -68 -1 -70 -25 -70 -14 0 -25 -4 -25
-10 0 -6 33 -10 80 -10 47 0 80 4 80 10 0 6 -11 10 -25 10 l-25 0 0 140 0 140
25 0 c14 0 25 5 25 10 0 6 -33 10 -80 10 -47 0 -80 -4 -80 -10 0 -5 11 -10 25
-10 24 0 25 -3 25 -60 l0 -60 -75 0 -75 0 0 60 c0 57 1 60 25 60 14 0 25 5 25
10 0 6 -35 10 -85 10 -50 0 -85 -4 -85 -10z"/>
<path d="M610 1370 c0 -70 3 -90 14 -90 10 0 15 18 18 61 5 63 26 96 55 85 8
-3 13 2 13 14 0 22 -20 26 -51 10 -13 -7 -19 -7 -19 0 0 5 -7 10 -15 10 -12 0
-15 -17 -15 -90z"/>
<path d="M753 1436 c-61 -52 -21 -156 60 -156 65 0 111 63 87 120 -26 63 -96
80 -147 36z m97 -26 c11 -11 20 -29 20 -40 0 -23 -33 -60 -55 -60 -22 0 -55
37 -55 60 0 23 33 60 55 60 8 0 24 -9 35 -20z"/>
<path d="M940 1356 c0 -78 -4 -106 -15 -116 -8 -6 -19 -9 -26 -5 -7 5 -10 1
-7 -11 4 -23 43 -31 64 -14 21 18 21 250 -1 250 -12 0 -15 -18 -15 -104z"/>
<path d="M1064 1445 c-12 -8 -27 -28 -34 -45 -15 -36 0 -82 34 -105 44 -32
126 -7 126 37 0 20 -1 20 -20 3 -28 -25 -70 -22 -93 6 l-19 24 66 3 c62 3 66
4 66 27 0 50 -81 82 -126 50z m76 -30 c11 -13 7 -15 -30 -15 -37 0 -41 2 -30
15 7 8 20 15 30 15 10 0 23 -7 30 -15z"/>
<path d="M1235 1436 c-68 -68 -16 -170 78 -152 27 5 37 12 37 26 0 17 -4 18
-29 9 -37 -13 -68 2 -77 35 -12 50 30 85 80 67 22 -9 26 -8 26 8 0 39 -79 43
-115 7z"/>
<path d="M1510 1370 c0 -73 3 -90 15 -90 12 0 15 17 15 90 0 73 -3 90 -15 90
-12 0 -15 -17 -15 -90z"/>
<path d="M1613 1436 c-61 -52 -21 -156 60 -156 65 0 111 63 87 120 -26 63 -96
80 -147 36z m97 -26 c11 -11 20 -29 20 -40 0 -23 -33 -60 -55 -60 -22 0 -55
37 -55 60 0 23 33 60 55 60 8 0 24 -9 35 -20z"/>
<path d="M1800 1370 c0 -83 1 -90 20 -90 17 0 20 7 20 49 0 60 6 78 32 92 33
18 48 -5 48 -77 0 -57 2 -64 20 -64 18 0 20 7 20 70 0 57 -4 74 -20 90 -22 22
-51 26 -81 10 -13 -7 -19 -7 -19 0 0 5 -9 10 -20 10 -19 0 -20 -7 -20 -90z"/>
<path d="M3197 1253 c-4 -3 -7 -31 -7 -60 0 -39 4 -53 13 -51 6 3 14 13 15 24
7 38 42 63 99 70 30 3 56 4 59 1 3 -3 -37 -68 -90 -145 -53 -77 -98 -147 -102
-156 -5 -14 9 -16 134 -16 159 0 152 -4 152 86 0 64 -12 70 -29 14 -16 -53
-43 -70 -114 -70 l-58 0 95 139 c53 77 99 146 102 155 5 14 -10 16 -128 16
-74 0 -138 -3 -141 -7z"/>
<path d="M4780 1231 c0 -5 5 -11 11 -13 7 -2 21 -31 33 -63 27 -78 45 -78 72
0 12 32 26 61 33 63 22 7 10 22 -18 22 -30 0 -51 -15 -30 -22 12 -4 -8 -88
-21 -88 -13 0 -33 84 -21 88 6 2 9 8 5 13 -7 12 -64 12 -64 0z"/>
<path d="M8484 1205 c-31 -31 -31 -59 2 -91 21 -22 31 -25 60 -20 33 7 34 6
34 -24 0 -18 -6 -33 -15 -36 -8 -4 -15 -10 -15 -15 0 -12 67 -11 75 1 3 6 -1
10 -9 10 -13 0 -16 16 -16 98 l0 98 -46 2 c-36 1 -50 -3 -70 -23z m73 -7 c20
-27 21 -48 4 -70 -16 -20 -22 -21 -45 -10 -18 8 -26 19 -26 36 0 43 45 72 67
44z"/>
<path d="M3510 991 c0 -5 5 -11 11 -13 7 -2 21 -31 33 -63 29 -84 48 -84 76
-1 14 42 27 66 36 66 9 0 12 5 9 10 -8 13 -65 13 -65 1 0 -5 4 -11 9 -13 4 -1
0 -25 -9 -53 l-18 -50 -11 28 c-19 49 -24 77 -12 77 6 0 11 5 11 10 0 6 -16
10 -35 10 -19 0 -35 -4 -35 -9z"/>
<path d="M380 753 c64 -175 65 -178 85 -181 17 -2 27 15 64 115 24 65 46 124
49 131 3 10 -2 13 -18 10 -18 -2 -28 -20 -56 -97 -18 -51 -35 -95 -38 -98 -2
-2 -19 41 -37 96 -29 88 -36 101 -55 101 l-23 0 29 -77z"/>
<path d="M610 805 c0 -26 24 -35 32 -12 7 18 -2 37 -18 37 -8 0 -14 -10 -14
-25z"/>
<path d="M860 805 c0 -26 24 -35 32 -12 7 18 -2 37 -18 37 -8 0 -14 -10 -14
-25z"/>
<path d="M1460 700 l0 -130 85 0 c68 0 85 3 85 15 0 10 -16 15 -62 17 l-63 3
-3 43 -3 42 65 0 c52 0 66 3 66 15 0 12 -14 15 -66 15 l-65 0 3 38 3 37 63 3
c46 2 62 7 62 17 0 12 -17 15 -85 15 l-85 0 0 -130z"/>
<path d="M2360 778 c0 -40 -3 -49 -12 -40 -30 30 -93 7 -113 -42 -33 -77 36
-153 106 -116 13 7 19 7 19 0 0 -5 9 -10 20 -10 19 0 20 7 20 130 0 123 -1
130 -20 130 -17 0 -20 -7 -20 -52z m-26 -68 c20 -7 26 -16 26 -40 0 -29 -29
-70 -50 -70 -17 0 -50 39 -50 60 0 17 32 60 44 60 3 0 16 -4 30 -10z"/>
<path d="M610 660 c0 -73 3 -90 15 -90 12 0 15 17 15 90 0 73 -3 90 -15 90
-12 0 -15 -17 -15 -90z"/>
<path d="M702 734 c-14 -10 -22 -24 -20 -37 3 -21 20 -32 82 -56 23 -10 26
-14 16 -26 -16 -19 -37 -19 -72 -1 -26 14 -28 13 -28 -4 0 -44 86 -55 125 -15
14 13 25 28 25 33 0 16 -34 40 -69 49 -19 5 -36 14 -39 21 -6 18 28 27 59 15
25 -10 29 -9 29 7 0 33 -69 42 -108 14z"/>
<path d="M860 660 c0 -73 3 -90 15 -90 12 0 15 17 15 90 0 73 -3 90 -15 90
-12 0 -15 -17 -15 -90z"/>
<path d="M973 726 c-61 -52 -21 -156 60 -156 65 0 111 63 87 120 -26 63 -96
80 -147 36z m97 -26 c11 -11 20 -29 20 -40 0 -23 -33 -60 -55 -60 -22 0 -55
37 -55 60 0 23 33 60 55 60 8 0 24 -9 35 -20z"/>
<path d="M1150 660 c0 -83 1 -90 20 -90 17 0 20 7 20 49 0 60 6 78 32 92 33
18 48 -5 48 -77 0 -57 2 -64 20 -64 18 0 20 7 20 70 0 57 -4 74 -20 90 -22 22
-51 26 -81 10 -13 -7 -19 -7 -19 0 0 5 -9 10 -20 10 -19 0 -20 -7 -20 -90z"/>
<path d="M1660 660 c0 -83 1 -90 20 -90 17 0 20 7 20 49 0 60 6 78 32 92 33
18 48 -5 48 -77 0 -57 2 -64 20 -64 18 0 20 7 20 70 0 57 -4 74 -20 90 -22 22
-51 26 -81 10 -13 -7 -19 -7 -19 0 0 5 -9 10 -20 10 -19 0 -20 -7 -20 -90z"/>
<path d="M1885 726 c-68 -68 -16 -170 78 -152 27 5 37 12 37 26 0 17 -4 18
-29 9 -37 -13 -68 2 -77 35 -12 50 30 85 80 67 22 -9 26 -8 26 8 0 39 -79 43
-115 7z"/>
<path d="M2043 726 c-61 -52 -21 -156 60 -156 65 0 111 63 87 120 -26 63 -96
80 -147 36z m97 -26 c11 -11 20 -29 20 -40 0 -23 -33 -60 -55 -60 -22 0 -55
37 -55 60 0 23 33 60 55 60 8 0 24 -9 35 -20z"/>
<path d="M2474 735 c-34 -23 -49 -69 -34 -105 7 -17 22 -37 34 -45 44 -32 126
-7 126 37 0 20 -1 20 -20 3 -28 -25 -70 -22 -93 6 l-19 24 66 3 c62 3 66 4 66
27 0 50 -81 82 -126 50z m76 -30 c11 -13 7 -15 -30 -15 -37 0 -41 2 -30 15 7
8 20 15 30 15 10 0 23 -7 30 -15z"/>
<path d="M2640 660 c0 -70 3 -90 14 -90 10 0 15 18 18 61 5 63 26 96 55 85 8
-3 13 2 13 14 0 22 -20 26 -51 10 -13 -7 -19 -7 -19 0 0 5 -7 10 -15 10 -12 0
-15 -17 -15 -90z"/>
<path d="M7600 691 c0 -5 10 -11 22 -13 14 -2 41 -28 71 -68 74 -98 73 -88 14
-168 -41 -55 -59 -72 -84 -77 -59 -11 -35 -25 42 -25 75 0 96 11 51 27 l-25 8
44 58 43 58 41 -57 c45 -62 49 -74 26 -74 -8 0 -15 -4 -15 -10 0 -6 35 -10 85
-10 50 0 85 4 85 10 0 6 -10 10 -22 10 -17 0 -40 24 -90 94 l-66 94 44 60 c35
47 52 61 79 66 60 12 38 26 -40 26 -48 0 -75 -4 -75 -11 0 -6 9 -13 20 -16 26
-7 25 -11 -14 -57 l-33 -40 -32 44 c-35 48 -38 60 -16 60 8 0 15 5 15 10 0 6
-35 10 -85 10 -47 0 -85 -4 -85 -9z"/>
<path d="M4370 620 c0 -5 11 -10 25 -10 19 0 37 -17 81 -76 31 -41 53 -81 51
-87 -3 -7 -26 -38 -52 -70 -31 -40 -55 -60 -75 -64 -54 -10 -32 -23 40 -23 40
0 70 4 70 10 0 6 -6 10 -14 10 -28 0 -25 17 12 68 20 28 39 51 42 52 6 0 80
-106 80 -114 0 -3 -7 -6 -15 -6 -8 0 -15 -4 -15 -10 0 -6 35 -10 85 -10 50 0
85 4 85 10 0 6 -11 10 -24 10 -17 0 -35 16 -67 58 -23 31 -53 71 -65 87 l-23
31 45 57 c31 40 54 59 74 64 54 10 32 23 -40 23 -68 0 -91 -12 -50 -25 22 -7
19 -19 -22 -68 l-23 -29 -33 45 c-38 53 -38 57 -12 57 11 0 20 5 20 10 0 6
-37 10 -90 10 -53 0 -90 -4 -90 -10z"/>
<path d="M8460 480 l0 -130 85 0 c69 0 85 3 85 15 0 12 -14 15 -65 15 l-65 0
0 115 c0 108 -1 115 -20 115 -19 0 -20 -7 -20 -130z"/>
<path d="M10130 480 c0 -123 1 -130 20 -130 19 0 20 7 20 130 0 123 -1 130
-20 130 -19 0 -20 -7 -20 -130z"/>
<path d="M11330 585 c0 -16 6 -25 15 -25 9 0 15 9 15 25 0 16 -6 25 -15 25 -9
0 -15 -9 -15 -25z"/>
<path d="M10600 559 c0 -12 -8 -23 -20 -26 -23 -6 -26 -19 -6 -30 8 -5 15 -32
18 -71 5 -68 16 -84 58 -80 32 4 40 35 8 34 -21 -1 -23 4 -26 57 -3 55 -2 57
23 57 16 0 25 6 25 15 0 9 -9 15 -25 15 -20 0 -25 5 -25 25 0 16 -6 25 -15 25
-9 0 -15 -9 -15 -21z"/>
<path d="M11220 559 c0 -12 -8 -23 -20 -26 -23 -6 -26 -19 -6 -30 8 -5 15 -32
18 -71 5 -68 16 -84 58 -80 32 4 40 35 8 34 -21 -1 -23 4 -26 57 -3 55 -2 57
23 57 16 0 25 6 25 15 0 9 -9 15 -25 15 -20 0 -25 5 -25 25 0 16 -6 25 -15 25
-9 0 -15 -9 -15 -21z"/>
<path d="M5170 420 c0 -123 1 -130 20 -130 19 0 20 7 20 130 0 123 -1 130 -20
130 -19 0 -20 -7 -20 -130z"/>
<path d="M8669 511 c-28 -23 -20 -38 11 -21 26 14 65 6 73 -14 4 -10 -5 -15
-31 -20 -75 -12 -105 -59 -60 -90 29 -20 62 -20 79 0 11 14 13 14 21 0 10 -19
44 -21 54 -5 4 7 -1 16 -10 21 -11 6 -16 23 -16 58 0 37 -5 55 -20 70 -25 25
-71 26 -101 1z m91 -90 c0 -18 -33 -42 -54 -39 -26 4 -33 35 -9 41 32 8 63 7
63 -2z"/>
<path d="M8840 440 c0 -83 1 -90 20 -90 17 0 20 7 20 49 0 60 6 78 32 92 33
18 48 -5 48 -77 0 -57 2 -64 20 -64 18 0 20 7 20 70 0 57 -4 74 -20 90 -22 22
-51 26 -81 10 -13 -7 -19 -7 -19 0 0 5 -9 10 -20 10 -19 0 -20 -7 -20 -90z"/>
<path d="M9065 505 c-51 -50 -18 -155 49 -155 14 0 28 5 31 10 10 17 25 11 25
-10 0 -11 -11 -27 -25 -36 -20 -13 -31 -14 -56 -5 -40 14 -39 14 -39 -4 0 -39
85 -47 127 -11 26 23 28 28 31 130 4 91 2 106 -11 106 -9 0 -19 -5 -22 -10 -4
-7 -12 -7 -25 0 -31 16 -59 12 -85 -15z m86 -15 c37 -20 14 -110 -28 -110 -20
0 -53 37 -53 60 0 21 33 60 51 60 6 0 19 -5 30 -10z"/>
<path d="M9250 481 c0 -110 28 -148 91 -124 16 6 29 7 29 2 0 -5 9 -9 20 -9
19 0 20 7 20 90 0 83 -1 90 -20 90 -18 0 -20 -7 -20 -58 0 -47 -4 -63 -21 -78
-35 -31 -53 -9 -57 70 -3 58 -5 66 -22 66 -17 0 -20 -7 -20 -49z"/>
<path d="M9469 511 c-28 -23 -20 -38 11 -21 26 14 65 6 73 -14 4 -10 -5 -15
-31 -20 -75 -12 -105 -59 -60 -90 29 -20 62 -20 79 0 11 14 13 14 21 0 10 -19
44 -21 54 -5 4 7 -1 16 -10 21 -11 6 -16 23 -16 58 0 37 -5 55 -20 70 -25 25
-71 26 -101 1z m91 -90 c0 -18 -33 -42 -54 -39 -26 4 -33 35 -9 41 32 8 63 7
63 -2z"/>
<path d="M9655 505 c-51 -50 -18 -155 49 -155 14 0 28 5 31 10 10 17 25 11 25
-10 0 -11 -11 -27 -25 -36 -20 -13 -31 -14 -56 -5 -40 14 -39 14 -39 -4 0 -39
85 -47 127 -11 26 23 28 28 31 130 4 91 2 106 -11 106 -9 0 -19 -5 -22 -10 -4
-7 -12 -7 -25 0 -31 16 -59 12 -85 -15z m86 -15 c37 -20 14 -110 -28 -110 -20
0 -53 37 -53 60 0 21 33 60 51 60 6 0 19 -5 30 -10z"/>
<path d="M9867 519 c-11 -6 -25 -26 -33 -45 -35 -83 60 -160 134 -108 12 8 22
22 22 30 0 17 0 17 -39 -2 -31 -16 -34 -15 -59 3 -46 34 -39 43 32 43 60 0 66
2 66 20 0 51 -76 86 -123 59z m67 -25 c30 -11 16 -24 -25 -24 -36 0 -40 2 -29
15 13 16 29 19 54 9z"/>
<path d="M10220 440 c0 -83 1 -90 20 -90 17 0 20 7 20 49 0 60 6 78 32 92 33
18 48 -5 48 -77 0 -57 2 -64 20 -64 18 0 20 7 20 70 0 57 -4 74 -20 90 -22 22
-51 26 -81 10 -13 -7 -19 -7 -19 0 0 5 -9 10 -20 10 -19 0 -20 -7 -20 -90z"/>
<path d="M10432 514 c-14 -10 -22 -24 -20 -37 3 -21 20 -32 82 -56 23 -10 26
-14 16 -26 -16 -19 -37 -19 -72 -1 -26 14 -28 13 -28 -4 0 -45 86 -55 126 -15
24 24 25 28 11 48 -8 12 -32 27 -53 33 -21 6 -40 16 -42 22 -6 18 28 26 59 15
25 -10 29 -9 29 7 0 33 -69 42 -108 14z"/>
<path d="M10720 440 c0 -70 3 -90 14 -90 10 0 15 18 18 61 5 63 26 96 55 85 8
-3 13 2 13 14 0 22 -20 26 -51 10 -13 -7 -19 -7 -19 0 0 5 -7 10 -15 10 -12 0
-15 -17 -15 -90z"/>
<path d="M10840 481 c0 -110 28 -148 91 -124 16 6 29 7 29 2 0 -5 9 -9 20 -9
19 0 20 7 20 90 0 83 -1 90 -20 90 -18 0 -20 -7 -20 -58 0 -47 -4 -63 -21 -78
-35 -31 -53 -9 -57 70 -3 58 -5 66 -22 66 -17 0 -20 -7 -20 -49z"/>
<path d="M11063 515 c-49 -34 -50 -115 -1 -149 38 -27 108 -15 108 19 0 11 -6
12 -29 4 -37 -13 -68 2 -77 35 -12 51 39 91 85 66 18 -9 21 -8 21 8 0 32 -70
43 -107 17z"/>
<path d="M11330 440 c0 -73 3 -90 15 -90 12 0 15 17 15 90 0 73 -3 90 -15 90
-12 0 -15 -17 -15 -90z"/>
<path d="M11444 515 c-34 -23 -49 -69 -34 -105 34 -81 143 -78 170 4 26 80
-67 150 -136 101z m86 -35 c11 -11 20 -29 20 -40 0 -23 -33 -60 -55 -60 -22 0
-55 37 -55 60 0 23 33 60 55 60 8 0 24 -9 35 -20z"/>
<path d="M11620 440 c0 -83 1 -90 20 -90 17 0 20 7 20 49 0 60 6 78 32 92 33
18 48 -5 48 -77 0 -57 2 -64 20 -64 18 0 20 7 20 70 0 57 -4 74 -20 90 -22 22
-51 26 -81 10 -13 -7 -19 -7 -19 0 0 5 -9 10 -20 10 -19 0 -20 -7 -20 -90z"/>
<path d="M5260 380 c0 -73 3 -90 15 -90 11 0 15 13 15 54 0 66 27 109 54 87
12 -10 16 -31 16 -77 0 -57 2 -64 20 -64 18 0 20 7 20 59 0 57 15 91 40 91 18
0 30 -39 30 -94 0 -43 3 -56 15 -56 24 0 21 141 -3 163 -23 21 -50 22 -72 2
-15 -14 -18 -14 -30 0 -14 17 -43 19 -71 5 -13 -7 -19 -7 -19 0 0 5 -7 10 -15
10 -12 0 -15 -17 -15 -90z"/>
<path d="M5559 451 c-28 -23 -20 -38 11 -21 26 14 65 6 73 -14 4 -10 -5 -15
-31 -20 -75 -12 -105 -59 -60 -90 29 -20 62 -20 79 0 11 14 13 14 21 0 10 -19
44 -21 54 -5 4 7 -1 16 -10 21 -12 7 -16 23 -16 63 0 44 -4 57 -22 69 -30 21
-71 20 -99 -3z m91 -90 c0 -18 -33 -42 -54 -39 -26 4 -33 35 -9 41 32 8 63 7
63 -2z"/>
<path d="M5755 445 c-51 -50 -18 -155 49 -155 14 0 28 5 31 10 10 17 25 11 25
-10 0 -11 -11 -27 -25 -36 -20 -13 -31 -14 -56 -5 -40 14 -39 14 -39 -4 0 -39
85 -47 127 -11 26 23 28 28 31 130 4 91 2 106 -11 106 -9 0 -19 -5 -22 -10 -4
-7 -12 -7 -25 0 -31 16 -59 12 -85 -15z m86 -15 c37 -20 14 -110 -28 -110 -20
0 -53 37 -53 60 0 21 33 60 51 60 6 0 19 -5 30 -10z"/>
<path d="M5967 459 c-11 -6 -25 -26 -33 -45 -35 -83 60 -160 134 -108 12 8 22
22 22 30 0 17 0 17 -39 -2 -31 -16 -34 -15 -59 3 -46 34 -39 43 32 43 60 0 66
2 66 20 0 51 -76 86 -123 59z m67 -25 c30 -11 16 -24 -25 -24 -36 0 -40 2 -29
15 13 16 29 19 54 9z"/>
<path d="M8063 406 c-36 -32 -36 -81 1 -113 30 -25 65 -30 84 -11 9 9 12 3 12
-30 0 -31 -4 -42 -15 -42 -8 0 -15 -4 -15 -10 0 -5 20 -10 45 -10 25 0 45 5
45 10 0 6 -7 10 -15 10 -12 0 -15 19 -15 108 l0 109 -50 1 c-39 1 -56 -4 -77
-22z m85 -18 c17 -17 15 -63 -2 -77 -46 -38 -111 25 -71 69 20 22 55 26 73 8z"/>
<path d="M4800 361 c0 -5 5 -11 11 -13 7 -2 21 -31 33 -63 29 -84 48 -84 76
-1 14 42 27 66 36 66 9 0 12 5 9 10 -8 13 -65 13 -65 1 0 -5 4 -11 9 -13 4 -1
0 -25 -9 -53 l-18 -50 -11 28 c-19 49 -24 77 -12 77 6 0 11 5 11 10 0 6 -16
10 -35 10 -19 0 -35 -4 -35 -9z"/>
</g>
</svg>
