<svg xmlns="http://www.w3.org/2000/svg" xmlns:xlink="http://www.w3.org/1999/xlink" xmlns:lucid="lucid" width="5500" height="12000"><g transform="translate(10500 5000)" lucid:page-tab-id="0_0"><path d="M-10500-5000h5500V7000h-5500z" fill="#fff"/><path d="M-7488.35-3502.16a6 6 0 0 1 6-6h219.9a6 6 0 0 1 6 6v213.74a6 6 0 0 1-6 6h-219.9a6 6 0 0 1-6-6z" stroke="#000" stroke-width="2" fill="#fff"/><use xlink:href="#a" transform="matrix(1,0,0,1,-7483.351063829787,-3503.15503875969) translate(88.54991319444444 116.02777777777777)"/><path d="M-7760.85-4418.27a6 6 0 0 1 6-6H-5726a6 6 0 0 1 6 6v2028.86a6 6 0 0 1-6 6h-2028.85a6 6 0 0 1-6-6z" fill="url(#b)"/><path d="M-7760.85-4834a6 6 0 0 1 6-6H-5726a6 6 0 0 1 6 6v439.47a6 6 0 0 1-6 6h-2028.85a6 6 0 0 1-6-6z" stroke="#000" stroke-width="2" fill="#f2f3f5"/><use xlink:href="#c" transform="matrix(1,0,0,1,-7755.851063829787,-4835) translate(82.72222222222194 172.30902777777777)"/><use xlink:href="#d" transform="matrix(1,0,0,1,-7755.851063829787,-4835) translate(250.4305555555553 172.30902777777777)"/><use xlink:href="#e" transform="matrix(1,0,0,1,-7755.851063829787,-4835) translate(669.0416666666664 172.30902777777777)"/><use xlink:href="#f" transform="matrix(1,0,0,1,-7755.851063829787,-4835) translate(1020.1527777777776 172.30902777777777)"/><use xlink:href="#g" transform="matrix(1,0,0,1,-7755.851063829787,-4835) translate(1341.611111111111 172.30902777777777)"/><use xlink:href="#h" transform="matrix(1,0,0,1,-7755.851063829787,-4835) translate(1621.8194444444446 172.30902777777777)"/><use xlink:href="#i" transform="matrix(1,0,0,1,-7755.851063829787,-4835) translate(221.7499999999999 378.8090277777777)"/><use xlink:href="#j" transform="matrix(1,0,0,1,-7755.851063829787,-4835) translate(512.7222222222222 378.8090277777777)"/><use xlink:href="#k" transform="matrix(1,0,0,1,-7755.851063829787,-4835) translate(696.75 378.8090277777777)"/><use xlink:href="#l" transform="matrix(1,0,0,1,-7755.851063829787,-4835) translate(1275.0833333333335 378.8090277777777)"/><path d="M-10080-4418.27a6 6 0 0 1 6-6h2028.85a6 6 0 0 1 6 6v2028.86a6 6 0 0 1-6 6H-10074a6 6 0 0 1-6-6z" fill="url(#m)"/><path d="M-10080-4834a6 6 0 0 1 6-6h2028.85a6 6 0 0 1 6 6v430.92a6 6 0 0 1-6 6H-10074a6 6 0 0 1-6-6z" stroke="#000" stroke-width="2" fill="#f2f3f5"/><use xlink:href="#n" transform="matrix(1,0,0,1,-10075,-4834.999999999999) translate(364.5972222222222 266.32465277777777)"/><use xlink:href="#o" transform="matrix(1,0,0,1,-10075,-4834.999999999999) translate(471.26388888888886 266.32465277777777)"/><use xlink:href="#p" transform="matrix(1,0,0,1,-10075,-4834.999999999999) translate(1019.6666666666666 266.32465277777777)"/><use xlink:href="#q" transform="matrix(1,0,0,1,-10075,-4834.999999999999) translate(1355.2916666666667 266.32465277777777)"/><path d="M-10080-2266.25a6 6 0 0 1 6-6h4348a6 6 0 0 1 6 6v213.74a6 6 0 0 1-6 6h-4348a6 6 0 0 1-6-6z" stroke="#000" stroke-width="2" fill="#f2f3f5"/><use xlink:href="#r" transform="matrix(1,0,0,1,-10075,-2267.248062015504) translate(1573.8888888888887 158.02777777777777)"/><use xlink:href="#s" transform="matrix(1,0,0,1,-10075,-2267.248062015504) translate(1739.5138888888887 158.02777777777777)"/><use xlink:href="#t" transform="matrix(1,0,0,1,-10075,-2267.248062015504) translate(2066.875 158.02777777777777)"/><path d="M-10080-2040.5a6 6 0 0 1 6-6h4348a6 6 0 0 1 6 6v834.5a6 6 0 0 1-6 6h-4348a6 6 0 0 1-6-6z" stroke="#000" stroke-width="2" fill="#edf5ff"/><use xlink:href="#u" transform="matrix(1,0,0,1,-10075,-2041.5116279069769) translate(247.2916666666663 268.55902777777777)"/><use xlink:href="#v" transform="matrix(1,0,0,1,-10075,-2041.5116279069769) translate(903.4722222222218 268.55902777777777)"/><use xlink:href="#w" transform="matrix(1,0,0,1,-10075,-2041.5116279069769) translate(1314.9999999999998 268.55902777777777)"/><use xlink:href="#x" transform="matrix(1,0,0,1,-10075,-2041.5116279069769) translate(1602.7083333333333 268.55902777777777)"/><use xlink:href="#y" transform="matrix(1,0,0,1,-10075,-2041.5116279069769) translate(2209.097222222222 268.55902777777777)"/><use xlink:href="#z" transform="matrix(1,0,0,1,-10075,-2041.5116279069769) translate(2635.2777777777774 268.55902777777777)"/><use xlink:href="#A" transform="matrix(1,0,0,1,-10075,-2041.5116279069769) translate(2988.958333333333 268.55902777777777)"/><use xlink:href="#B" transform="matrix(1,0,0,1,-10075,-2041.5116279069769) translate(3108.8194444444443 268.55902777777777)"/><use xlink:href="#C" transform="matrix(1,0,0,1,-10075,-2041.5116279069769) translate(107.91666666666606 475.05902777777777)"/><use xlink:href="#D" transform="matrix(1,0,0,1,-10075,-2041.5116279069769) translate(692.2916666666661 475.05902777777777)"/><use xlink:href="#E" transform="matrix(1,0,0,1,-10075,-2041.5116279069769) translate(991.1111111111105 475.05902777777777)"/><use xlink:href="#F" transform="matrix(1,0,0,1,-10075,-2041.5116279069769) translate(1339.166666666666 475.05902777777777)"/><use xlink:href="#G" transform="matrix(1,0,0,1,-10075,-2041.5116279069769) translate(1788.194444444444 475.05902777777777)"/><use xlink:href="#A" transform="matrix(1,0,0,1,-10075,-2041.5116279069769) translate(2067.2222222222217 475.05902777777777)"/><use xlink:href="#H" transform="matrix(1,0,0,1,-10075,-2041.5116279069769) translate(2187.083333333333 475.05902777777777)"/><use xlink:href="#I" transform="matrix(1,0,0,1,-10075,-2041.5116279069769) translate(2448.2638888888887 475.05902777777777)"/><use xlink:href="#J" transform="matrix(1,0,0,1,-10075,-2041.5116279069769) translate(2632.2916666666665 475.05902777777777)"/><use xlink:href="#K" transform="matrix(1,0,0,1,-10075,-2041.5116279069769) translate(3210.625 475.05902777777777)"/><use xlink:href="#L" transform="matrix(1,0,0,1,-10075,-2041.5116279069769) translate(3775.8333333333335 475.05902777777777)"/><use xlink:href="#M" transform="matrix(1,0,0,1,-10075,-2041.5116279069769) translate(284.8263888888887 681.5590277777778)"/><use xlink:href="#J" transform="matrix(1,0,0,1,-10075,-2041.5116279069769) translate(538.3680555555554 681.5590277777778)"/><use xlink:href="#N" transform="matrix(1,0,0,1,-10075,-2041.5116279069769) translate(1116.7013888888887 681.5590277777778)"/><use xlink:href="#O" transform="matrix(1,0,0,1,-10075,-2041.5116279069769) translate(1326.7013888888887 681.5590277777778)"/><use xlink:href="#P" transform="matrix(1,0,0,1,-10075,-2041.5116279069769) translate(1795.0347222222222 681.5590277777778)"/><use xlink:href="#M" transform="matrix(1,0,0,1,-10075,-2041.5116279069769) translate(1953.5069444444443 681.5590277777778)"/><use xlink:href="#Q" transform="matrix(1,0,0,1,-10075,-2041.5116279069769) translate(2207.0486111111113 681.5590277777778)"/><use xlink:href="#R" transform="matrix(1,0,0,1,-10075,-2041.5116279069769) translate(2646.1458333333335 681.5590277777778)"/><use xlink:href="#S" transform="matrix(1,0,0,1,-10075,-2041.5116279069769) translate(3171.9097222222226 681.5590277777778)"/><use xlink:href="#T" transform="matrix(1,0,0,1,-10075,-2041.5116279069769) translate(3503.4375000000005 681.5590277777778)"/><use xlink:href="#U" transform="matrix(1,0,0,1,-10075,-2041.5116279069769) translate(3681.354166666667 681.5590277777778)"/><path d="M-7800-1194v370.02" stroke="#3a414a" stroke-width="10" fill="none"/><path d="M-7795.02-1193.87h-9.95v-5.13h9.95z" stroke="#3a414a" stroke-width=".05" fill="#3a414a"/><path d="M-7800-776.18l-13.9-42.8h27.8z" stroke="#3a414a" stroke-width="10" fill="#3a414a"/><path d="M-7670 2435v336.02" stroke="#3a414a" stroke-width="10" fill="none"/><path d="M-7665.02 2435.13h-9.95V2430h9.95z" stroke="#3a414a" stroke-width=".05" fill="#3a414a"/><path d="M-7670 2818.82l-13.9-42.8h27.8z" stroke="#3a414a" stroke-width="10" fill="#3a414a"/><path d="M-10060-497.94a6 6 0 0 1 6-6h4508a6 6 0 0 1 6 6V2420.5a6 6 0 0 1-6 6h-4508a6 6 0 0 1-6-6z" stroke="#4c535d" stroke-width="7" fill="#fff"/><path d="M-9765.9 412.5a6 6 0 0 1 6-6h3888.83a6 6 0 0 1 6 6v1581.24a6 6 0 0 1-6 6H-9759.9a6 6 0 0 1-6-6z" fill="#fff"/><path d="M-9725 406.5h29.92m19.95 0h29.9m19.95 0h29.92m19.94 0h29.9m19.96 0h29.9m19.95 0h29.9m19.95 0h29.9m19.96 0h29.92m19.94 0h29.92m19.94 0h29.9m19.96 0h29.9m19.95 0h29.92m19.94 0h29.9m19.95 0h29.9m19.95 0h29.92m19.94 0h29.9m19.96 0h29.9m19.95 0h29.92m19.93 0h29.9m19.96 0h29.9m19.94 0h29.92m19.94 0h29.9m19.96 0h29.9m19.95 0h29.93m19.94 0h29.9m19.96 0h29.9m19.95 0h29.92m19.94 0h29.9m19.96 0h29.9m19.95 0h29.92m19.94 0h29.92m19.95 0h29.9m19.95 0h29.92m19.94 0h29.9m19.96 0h29.9m19.95 0h29.9m19.95 0h29.9m19.96 0h29.92m19.94 0h29.92m19.94 0h29.9m19.96 0h29.9m19.95 0h29.92m19.94 0h29.9m19.95 0h29.9m19.95 0h29.92m19.94 0h29.9m19.96 0h29.9m19.95 0h29.92m19.93 0h29.9m19.96 0h29.9m19.94 0h29.92m19.94 0h29.9m19.96 0h29.9m19.95 0h29.93m19.94 0h29.9m19.96 0h29.9m19.95 0h29.92m19.94 0h29.9m19.96 0h29.9m19.95 0h29.92m19.94 0h29.93m19.94 0h29.9m19.95 0h29.92m19.94 0h29.92m19.94 0h29.9m19.95 0h29.9m19.95 0h29.9m19.96 0h29.92m19.94 0h29.92m19.94 0h29.9m19.96 0h29.9m19.95 0h29.92m19.94 0h29.9m19.95 0h29.9m19.95 0h29.92m19.94 0h29.9m19.96 0h29.9m19.95 0h14.96a6 6 0 0 1 6 6v14.8m0 19.78v29.65m0 19.76v29.64m0 19.77v29.65m0 19.77v29.65m0 19.76v29.65m0 19.77v29.65m0 19.76v29.65m0 19.78v29.65m0 19.76v29.64m0 19.77v29.65m0 19.77v29.65m0 19.76v29.65m0 19.77v29.65m0 19.76v29.65m0 19.78v29.64m0 19.77v29.64m0 19.76v29.65m0 19.77v29.65m0 19.76v29.65m0 19.77v29.65m0 19.76V1465m0 19.78v29.64m0 19.77v29.64m0 19.76v29.65m0 19.77v29.65m0 19.76v29.65m0 19.77v29.64m0 19.76v29.65m0 19.77v29.65m0 19.77v29.64m0 19.76v29.65m0 19.77v14.82a6 6 0 0 1-6 6h-14.96m-19.94 0h-29.9m-19.95 0h-29.92m-19.94 0h-29.92m-19.94 0h-29.9m-19.96 0h-29.9m-19.95 0h-29.92m-19.94 0h-29.92m-19.94 0h-29.92m-19.94 0h-29.92m-19.94 0h-29.9m-19.95 0h-29.92m-19.94 0h-29.9m-19.95 0h-29.9m-19.95 0h-29.92m-19.94 0h-29.92m-19.94 0h-29.9m-19.95 0h-29.92m-19.93 0h-29.92m-19.94 0h-29.9m-19.94 0h-29.92m-19.94 0h-29.92m-19.94 0h-29.9m-19.95 0h-29.93m-19.94 0h-29.92m-19.93 0h-29.9m-19.95 0h-29.92m-19.94 0h-29.92m-19.94 0h-29.9m-19.96 0h-29.9m-19.95 0h-29.93m-19.94 0h-29.9m-19.96 0h-29.9m-19.95 0h-29.92m-19.94 0h-29.9m-19.96 0h-29.9m-19.95 0h-29.92m-19.94 0h-29.92m-19.95 0h-29.9m-19.95 0h-29.92m-19.94 0h-29.9m-19.96 0h-29.9m-19.95 0h-29.9m-19.95 0h-29.9m-19.96 0h-29.92m-19.94 0h-29.92m-19.94 0h-29.9m-19.96 0h-29.9m-19.95 0h-29.92m-19.94 0h-29.9m-19.95 0h-29.9m-19.95 0h-29.92m-19.94 0h-29.9m-19.96 0h-29.9m-19.95 0h-29.92m-19.93 0h-29.9m-19.96 0h-29.9m-19.94 0h-29.92m-19.94 0h-29.9m-19.96 0h-29.9m-19.95 0h-29.93m-19.94 0h-29.9m-19.96 0h-29.9m-19.95 0H-9027m-19.94 0h-29.9m-19.96 0h-29.9m-19.95 0h-29.92m-19.94 0h-29.92m-19.95 0h-29.9m-19.95 0h-29.92m-19.94 0h-29.9m-19.96 0h-29.9m-19.95 0h-29.9m-19.95 0h-29.9m-19.96 0h-29.92m-19.94 0h-29.92m-19.94 0h-29.9m-19.96 0h-29.9m-19.95 0h-14.96a6 6 0 0 1-6-6v-14.82m0-19.77v-29.65m0-19.76v-29.65m0-19.78v-29.64m0-19.77v-29.64m0-19.77v-29.65m0-19.77v-29.65m0-19.76v-29.65m0-19.77v-29.65m0-19.76v-29.65m0-19.78v-29.64m0-19.77v-29.64m0-19.76v-29.65m0-19.77v-29.65m0-19.76v-29.65m0-19.77v-29.64m0-19.76v-29.65m0-19.77v-29.65m0-19.77v-29.64m0-19.76v-29.65m0-19.77v-29.65m0-19.76v-29.65m0-19.77V891.8m0-19.76V842.4m0-19.77v-29.65m0-19.77v-29.64m0-19.76v-29.65m0-19.77v-29.64m0-19.77v-29.65m0-19.77V545.9m0-19.76V496.5m0-19.77v-29.65m0-19.77v-14.8a6 6 0 0 1 6-6h14.97" stroke="#000" stroke-width="10" fill="none"/><path d="M-9208.63 810.8a6 6 0 0 1 6-6h2867.18a6 6 0 0 1 6 6v445.85a6 6 0 0 1-6 6h-2867.18a6 6 0 0 1-6-6z" stroke="#000" stroke-opacity="0" stroke-width="2" fill="#fff0f0"/><g><use xlink:href="#V" transform="matrix(1,0,0,1,-9203.630136986301,809.8017667323857) translate(875.0347222222223 277.77777777777777)"/><use xlink:href="#W" transform="matrix(1,0,0,1,-9203.630136986301,809.8017667323857) translate(1580.6597222222222 277.77777777777777)"/></g><path d="M-9208.63 1379.82a6 6 0 0 1 6-6h792.93a6 6 0 0 1 6 6v445.85a6 6 0 0 1-6 6h-792.93a6 6 0 0 1-6-6z" stroke="#000" stroke-opacity="0" stroke-width="2" fill="#edf5ff"/><g><use xlink:href="#X" transform="matrix(1,0,0,1,-9203.630136986303,1378.8205909987084) translate(191.80555555555554 172.77777777777777)"/><use xlink:href="#Y" transform="matrix(1,0,0,1,-9203.630136986303,1378.8205909987084) translate(190.3472222222222 379.2777777777777)"/></g><path d="M-7289.18 640.1a6 6 0 0 1 6-6h259.94a6 6 0 0 1 6 6v108.75a6 6 0 0 1-6 6h-259.94a6 6 0 0 1-6-6zM-6948.63 640.1a6 6 0 0 1 6-6h259.94a6 6 0 0 1 6 6v108.75a6 6 0 0 1-6 6h-259.93a6 6 0 0 1-6-6zM-6601.4 640.1a6 6 0 0 1 6-6h259.95a6 6 0 0 1 6 6v108.75a6 6 0 0 1-6 6h-259.94a6 6 0 0 1-6-6zM-8341.78 1379.82a6 6 0 0 1 6-6h259.94a6 6 0 0 1 6 6v108.75a6 6 0 0 1-6 6h-259.94a6 6 0 0 1-6-6zM-8001.23 1379.82a6 6 0 0 1 6-6h259.93a6 6 0 0 1 6 6v108.75a6 6 0 0 1-6 6h-259.93a6 6 0 0 1-6-6zM-7654 1379.82a6 6 0 0 1 6-6h259.94a6 6 0 0 1 6 6v108.75a6 6 0 0 1-6 6H-7648a6 6 0 0 1-6-6z" stroke="#cbc2a3" stroke-width="10" fill="#e8e2c8"/><path d="M-9394.38-754a6 6 0 0 1 6-6h3176.76a6 6 0 0 1 6 6v445.85a6 6 0 0 1-6 6h-3176.76a6 6 0 0 1-6-6z" stroke="#000" stroke-opacity="0" stroke-width="2" fill="#dfe3e8"/><g><use xlink:href="#Z" transform="matrix(1,0,0,1,-9389.383561643835,-755.0000000000001) translate(1303.7578125 292.83333333333337)"/></g><path d="M-9240-267.5a6 6 0 0 1 6-6h3007.88a6 6 0 0 1 6 6v231.74a6 6 0 0 1-6 6H-9234a6 6 0 0 1-6-6z" fill="none"/><g><use xlink:href="#aa" transform="matrix(1,0,0,1,-9235,-268.4945841085956) translate(0 184.90364583333334)"/><use xlink:href="#ab" transform="matrix(1,0,0,1,-9235,-268.4945841085956) translate(1551.940104166667 184.90364583333334)"/><use xlink:href="#ac" transform="matrix(1,0,0,1,-9235,-268.4945841085956) translate(2168.3593750000005 184.90364583333334)"/></g><path d="M-9765.9 127.98a6 6 0 0 1 6-6h2817.8a6 6 0 0 1 6 6v193.5a6 6 0 0 1-6 6h-2817.8a6 6 0 0 1-6-6z" fill="none"/><g><use xlink:href="#ad" transform="matrix(1,0,0,1,-9760.890410958904,126.97917761279989) translate(0 154.58637152777777)"/><use xlink:href="#ae" transform="matrix(1,0,0,1,-9760.890410958904,126.97917761279989) translate(752.8645833333334 154.58637152777777)"/><use xlink:href="#af" transform="matrix(1,0,0,1,-9760.890410958904,126.97917761279989) translate(1132.4110243055557 154.58637152777777)"/><use xlink:href="#ag" transform="matrix(1,0,0,1,-9760.890410958904,126.97917761279989) translate(1484.0060763888891 154.58637152777777)"/><use xlink:href="#ah" transform="matrix(1,0,0,1,-9760.890410958904,126.97917761279989) translate(1685.2864583333335 154.58637152777777)"/></g><path d="M-7908.36 1749.68a6 6 0 0 1 6-6h1954.9a6 6 0 0 1 6 6v170.1a6 6 0 0 1-6 6h-1954.9a6 6 0 0 1-6-6z" fill="none"/><g><use xlink:href="#ai" transform="matrix(1,0,0,1,-7903.356164383562,1748.6828267718179) translate(0 138.23611111111111)"/><use xlink:href="#aj" transform="matrix(1,0,0,1,-7903.356164383562,1748.6828267718179) translate(370.9027777777778 138.23611111111111)"/><use xlink:href="#ak" transform="matrix(1,0,0,1,-7903.356164383562,1748.6828267718179) translate(717.9166666666667 138.23611111111111)"/><use xlink:href="#al" transform="matrix(1,0,0,1,-7903.356164383562,1748.6828267718179) translate(1199.3055555555557 138.23611111111111)"/><use xlink:href="#am" transform="matrix(1,0,0,1,-7903.356164383562,1748.6828267718179) translate(1688.1944444444446 138.23611111111111)"/></g><path d="M-7759.33 3692.17a6 6 0 0 1 6-6h1973.68a6 6 0 0 1 6 6v1973.7a6 6 0 0 1-6 6h-1973.68a6 6 0 0 1-6-6z" fill="url(#an)"/><path d="M-5878 5756.48c168.23 0 304.6 136.38 304.6 304.62s-136.37 304.62-304.6 304.62h-3903.7c-168.23 0-304.6-136.38-304.6-304.62s136.37-304.62 304.6-304.62z" stroke="#dfe3e8" stroke-width="10" fill="#e3fae3"/><g><use xlink:href="#ao" transform="matrix(1,0,0,1,-10081.310392684873,5761.477430702964) translate(223.44944444444423 250.27777777777777)"/><use xlink:href="#ap" transform="matrix(1,0,0,1,-10081.310392684873,5761.477430702964) translate(740.0466666666665 250.27777777777777)"/><use xlink:href="#aq" transform="matrix(1,0,0,1,-10081.310392684873,5761.477430702964) translate(1013.4494444444443 250.27777777777777)"/><use xlink:href="#M" transform="matrix(1,0,0,1,-10081.310392684873,5761.477430702964) translate(1554.6994444444445 250.27777777777777)"/><use xlink:href="#ar" transform="matrix(1,0,0,1,-10081.310392684873,5761.477430702964) translate(1808.2411111111112 250.27777777777777)"/><use xlink:href="#D" transform="matrix(1,0,0,1,-10081.310392684873,5761.477430702964) translate(2427.5466666666666 250.27777777777777)"/><use xlink:href="#J" transform="matrix(1,0,0,1,-10081.310392684873,5761.477430702964) translate(2726.366111111111 250.27777777777777)"/><use xlink:href="#as" transform="matrix(1,0,0,1,-10081.310392684873,5761.477430702964) translate(3304.6994444444445 250.27777777777777)"/><use xlink:href="#at" transform="matrix(1,0,0,1,-10081.310392684873,5761.477430702964) translate(3454.213333333333 250.27777777777777)"/><use xlink:href="#au" transform="matrix(1,0,0,1,-10081.310392684873,5761.477430702964) translate(4066.018888888889 250.27777777777777)"/><use xlink:href="#av" transform="matrix(1,0,0,1,-10081.310392684873,5761.477430702964) translate(1182.928611111111 456.77777777777777)"/><use xlink:href="#aw" transform="matrix(1,0,0,1,-10081.310392684873,5761.477430702964) translate(1636.2619444444445 456.77777777777777)"/><use xlink:href="#T" transform="matrix(1,0,0,1,-10081.310392684873,5761.477430702964) translate(1987.3730555555555 456.77777777777777)"/><use xlink:href="#M" transform="matrix(1,0,0,1,-10081.310392684873,5761.477430702964) translate(2165.2897222222223 456.77777777777777)"/><use xlink:href="#ax" transform="matrix(1,0,0,1,-10081.310392684873,5761.477430702964) translate(2418.831388888889 456.77777777777777)"/><use xlink:href="#ay" transform="matrix(1,0,0,1,-10081.310392684873,5761.477430702964) translate(2811.1925 456.77777777777777)"/></g><path d="M-9987.6 3692.17a6 6 0 0 1 6-6h1973.7a6 6 0 0 1 6 6v1973.7a6 6 0 0 1-6 6h-1973.7a6 6 0 0 1-6-6z" fill="url(#az)"/><path d="M-5680.78 2840c210.3 0 380.78 170.48 380.78 380.78 0 210.3-170.48 380.78-380.78 380.78h-3978.44c-210.3 0-380.78-170.48-380.78-380.78 0-210.3 170.48-380.78 380.78-380.78z" stroke="#dfe3e8" stroke-width="10" fill="#fcfcca"/><g><use xlink:href="#aA" transform="matrix(1,0,0,1,-10035,2845) translate(233.51194444444423 220.02777777777777)"/><use xlink:href="#aB" transform="matrix(1,0,0,1,-10035,2845) translate(641.0813888888887 220.02777777777777)"/><use xlink:href="#aC" transform="matrix(1,0,0,1,-10035,2845) translate(1297.2619444444442 220.02777777777777)"/><use xlink:href="#aD" transform="matrix(1,0,0,1,-10035,2845) translate(1708.789722222222 220.02777777777777)"/><use xlink:href="#aE" transform="matrix(1,0,0,1,-10035,2845) translate(1996.4980555555553 220.02777777777777)"/><use xlink:href="#aF" transform="matrix(1,0,0,1,-10035,2845) translate(2602.8869444444445 220.02777777777777)"/><use xlink:href="#aG" transform="matrix(1,0,0,1,-10035,2845) translate(3029.0675 220.02777777777777)"/><use xlink:href="#aH" transform="matrix(1,0,0,1,-10035,2845) translate(3382.7480555555558 220.02777777777777)"/><use xlink:href="#aI" transform="matrix(1,0,0,1,-10035,2845) translate(3502.609166666667 220.02777777777777)"/><use xlink:href="#aJ" transform="matrix(1,0,0,1,-10035,2845) translate(171.1508333333329 426.52777777777777)"/><use xlink:href="#aK" transform="matrix(1,0,0,1,-10035,2845) translate(755.5258333333329 426.52777777777777)"/><use xlink:href="#aL" transform="matrix(1,0,0,1,-10035,2845) translate(1054.3452777777775 426.52777777777777)"/><use xlink:href="#aM" transform="matrix(1,0,0,1,-10035,2845) translate(1402.400833333333 426.52777777777777)"/><use xlink:href="#aN" transform="matrix(1,0,0,1,-10035,2845) translate(1851.4286111111107 426.52777777777777)"/><use xlink:href="#aH" transform="matrix(1,0,0,1,-10035,2845) translate(2130.456388888889 426.52777777777777)"/><use xlink:href="#aO" transform="matrix(1,0,0,1,-10035,2845) translate(2250.3174999999997 426.52777777777777)"/><use xlink:href="#j" transform="matrix(1,0,0,1,-10035,2845) translate(2511.4980555555553 426.52777777777777)"/><use xlink:href="#k" transform="matrix(1,0,0,1,-10035,2845) translate(2695.525833333333 426.52777777777777)"/><use xlink:href="#aP" transform="matrix(1,0,0,1,-10035,2845) translate(3273.8591666666666 426.52777777777777)"/><use xlink:href="#aQ" transform="matrix(1,0,0,1,-10035,2845) translate(3839.0675 426.52777777777777)"/><use xlink:href="#aR" transform="matrix(1,0,0,1,-10035,2845) translate(4345.3175 426.52777777777777)"/><use xlink:href="#k" transform="matrix(1,0,0,1,-10035,2845) translate(601.602222222222 633.0277777777778)"/><use xlink:href="#aS" transform="matrix(1,0,0,1,-10035,2845) translate(1179.9355555555553 633.0277777777778)"/><use xlink:href="#aT" transform="matrix(1,0,0,1,-10035,2845) translate(1389.9355555555553 633.0277777777778)"/><use xlink:href="#aU" transform="matrix(1,0,0,1,-10035,2845) translate(1858.2688888888888 633.0277777777778)"/><use xlink:href="#aV" transform="matrix(1,0,0,1,-10035,2845) translate(2016.741111111111 633.0277777777778)"/><use xlink:href="#aW" transform="matrix(1,0,0,1,-10035,2845) translate(2270.2827777777775 633.0277777777778)"/><use xlink:href="#aX" transform="matrix(1,0,0,1,-10035,2845) translate(2709.38 633.0277777777778)"/><use xlink:href="#aY" transform="matrix(1,0,0,1,-10035,2845) translate(3235.1438888888893 633.0277777777778)"/><use xlink:href="#aZ" transform="matrix(1,0,0,1,-10035,2845) translate(3566.671666666667 633.0277777777778)"/><use xlink:href="#ba" transform="matrix(1,0,0,1,-10035,2845) translate(3744.5883333333336 633.0277777777778)"/></g><path d="M-9896.5 3209.7c0 136.45-117.2 247.06-261.75 247.06-144.56 0-261.75-110.6-261.75-247.06 0-136.44 117.2-247.05 261.75-247.05 144.56 0 261.75 110.6 261.75 247.05z" stroke="#000" stroke-width="2" fill="#ffe342"/><path d="M-10349.5 3019.06h366.7v366.68h-366.7z" fill="url(#bb)"/><path d="M-5333.64 6281.1c0 140.2-113.65 253.86-253.85 253.86s-253.84-113.66-253.84-253.86c0-140.2 113.65-253.85 253.85-253.85s253.86 113.66 253.86 253.85z" stroke="#000" stroke-width="2" fill="#54c45e"/><g><use xlink:href="#bc" transform="matrix(1,0,0,1,-5836.34082478549,6032.252898157012) translate(183.9442361111111 312.28472222222223)"/></g><defs><path d="M98-1322v-168h1126v168H757V0H567v-1322H98" id="bd"/><path d="M628 24c-324 0-524-230-524-574 0-343 198-582 503-582 237 0 487 146 487 559v75H286c9 234 145 362 343 362 132 0 231-58 273-172l174 48C1024-91 857 24 628 24zM287-650h624c-17-190-120-322-304-322-192 0-309 151-320 322" id="be"/><path d="M65 0l393-574-370-544h210c88 136 192 297 267 435 67-142 176-302 264-435h206L661-564 1053 0H844c-94-144-206-310-287-458C484-308 366-142 273 0H65" id="bf"/><path d="M598-1118v154H368v674c0 100 37 144 132 144 23 0 62-6 92-12L629-6c-37 13-88 20-134 20-193 0-307-107-307-290v-688H20v-154h168v-266h180v266h230" id="bg"/><g id="a"><use transform="matrix(0.010850694444444444,0,0,0.010850694444444444,0,0)" xlink:href="#bd"/><use transform="matrix(0.010850694444444444,0,0,0.010850694444444444,12.608506944444445,0)" xlink:href="#be"/><use transform="matrix(0.010850694444444444,0,0,0.010850694444444444,25.065104166666664,0)" xlink:href="#bf"/><use transform="matrix(0.010850694444444444,0,0,0.010850694444444444,37.63020833333333,0)" xlink:href="#bg"/></g><image width="10" height="10" id="bh" xlink:href="https://images.lucid.app/images/048cc215-ea2b-4dd7-aad1-a2e7e53f4377/content" preserveAspectRatio="none"/><pattern id="b" patternUnits="userSpaceOnUse" x="-7760.85" y="-4424.27" width="2040.85" height="2040.85"><use xlink:href="#bh" transform="translate(0, 0) scale(204.08510638297872,204.08510638297872)"/></pattern><path d="M154 0v-137l495-537c165-179 249-281 249-418 0-156-121-253-280-253-170 0-278 110-278 278H158c0-264 200-443 465-443 266 0 455 183 455 416 0 161-73 288-336 568L416-179v12h687V0H154" id="bi"/><path d="M295 13c-75 0-135-60-135-135s60-135 135-135 135 60 135 135S370 13 295 13" id="bj"/><g id="c"><use transform="matrix(0.06944444444444445,0,0,0.06944444444444445,0,0)" xlink:href="#bi"/><use transform="matrix(0.06944444444444445,0,0,0.06944444444444445,86.73611111111111,0)" xlink:href="#bj"/></g><path d="M657 26c-323 0-524-166-541-416h195c15 169 171 246 346 246 202 0 356-106 356-265 5-203-294-238-475-293-239-73-380-191-380-389 0-252 224-419 512-419 294 0 499 171 508 396H992c-17-145-151-228-328-228-193 0-321 102-321 242 0 156 175 211 284 241l149 41c160 44 422 134 422 412 0 244-197 432-541 432" id="bk"/><path d="M471 26C259 26 90-98 90-318c0-256 228-303 435-329 202-27 287-16 287-108 0-139-79-219-234-219-161 0-248 86-283 164l-173-57c86-203 278-265 451-265 150 0 419 46 419 395V0H815v-152h-12C765-73 660 26 471 26zm31-159c199 0 310-134 310-271v-155c-30 35-226 55-295 64-131 17-246 59-246 186 0 116 97 176 231 176" id="bl"/><path d="M158 0v-1118h175l1 205c55-151 181-225 313-225 147 0 245 90 285 228 53-141 190-228 352-228 194 0 352 125 352 384V0h-181v-749c0-161-105-225-225-225-151 0-243 103-243 244V0H807v-767c0-124-93-207-219-207-131 0-250 92-250 270V0H158" id="bm"/><g id="d"><use transform="matrix(0.06944444444444445,0,0,0.06944444444444445,0,0)" xlink:href="#bk"/><use transform="matrix(0.06944444444444445,0,0,0.06944444444444445,91.25,0)" xlink:href="#bl"/><use transform="matrix(0.06944444444444445,0,0,0.06944444444444445,171.11111111111111,0)" xlink:href="#bm"/><use transform="matrix(0.06944444444444445,0,0,0.06944444444444445,295.69444444444446,0)" xlink:href="#be"/></g><path d="M481 0L54-1118h197c107 314 236 620 325 951 87-331 217-637 324-951h197L670 0H481" id="bn"/><path d="M158 0v-1118h180V0H158zm91-1301c-68 0-125-53-125-119s57-119 125-119c69 0 126 53 126 119s-57 119-126 119" id="bo"/><path d="M409 0L70-1118h191c89 329 165 560 243 925 75-353 154-601 240-925h192c85 325 161 564 235 922 77-354 157-598 244-922h191L1267 0h-179c-86-307-176-590-250-913C763-588 675-308 588 0H409" id="bp"/><g id="e"><use transform="matrix(0.06944444444444445,0,0,0.06944444444444445,0,0)" xlink:href="#bn"/><use transform="matrix(0.06944444444444445,0,0,0.06944444444444445,79.93055555555556,0)" xlink:href="#bo"/><use transform="matrix(0.06944444444444445,0,0,0.06944444444444445,114.375,0)" xlink:href="#be"/><use transform="matrix(0.06944444444444445,0,0,0.06944444444444445,194.72222222222223,0)" xlink:href="#bp"/></g><path d="M338-670V0H158v-1490h180v566c73-149 190-208 336-208 226 0 379 139 379 422V0H872v-695c0-172-96-275-252-275-161 0-282 109-282 300" id="bq"/><g id="f"><use transform="matrix(0.06944444444444445,0,0,0.06944444444444445,0,0)" xlink:href="#bp"/><use transform="matrix(0.06944444444444445,0,0,0.06944444444444445,116.3888888888889,0)" xlink:href="#bo"/><use transform="matrix(0.06944444444444445,0,0,0.06944444444444445,150.83333333333334,0)" xlink:href="#bg"/><use transform="matrix(0.06944444444444445,0,0,0.06944444444444445,197.36111111111111,0)" xlink:href="#bq"/></g><path d="M140 405l46-156c120 36 205 19 263-150l32-93L54-1118h197c107 313 237 620 324 950 87-331 219-637 326-950h196L606 167c-68 178-176 259-334 259-64 0-113-12-132-21" id="br"/><g id="g"><use transform="matrix(0.06944444444444445,0,0,0.06944444444444445,0,0)" xlink:href="#be"/><use transform="matrix(0.06944444444444445,0,0,0.06944444444444445,80.13888888888889,0)" xlink:href="#br"/><use transform="matrix(0.06944444444444445,0,0,0.06944444444444445,157.29166666666669,0)" xlink:href="#be"/></g><path d="M611 442c-248 0-391-105-460-228l146-94c47 65 117 165 314 165 178 0 307-82 307-266v-224h-17C863-141 792-18 576-18c-268 0-472-195-472-546 0-346 197-568 476-568 216 0 288 133 326 193h17v-179h175V29c0 289-215 413-487 413zm-5-620c203 0 314-146 314-390 0-237-108-403-314-403-213 0-319 180-319 403 0 230 109 390 319 390" id="bs"/><path d="M126 0v-134l627-806v-11H146v-167h839v143L376-178v11h629V0H126" id="bt"/><g id="h"><use transform="matrix(0.06944444444444445,0,0,0.06944444444444445,0,0)" xlink:href="#bs"/><use transform="matrix(0.06944444444444445,0,0,0.06944444444444445,87.22222222222223,0)" xlink:href="#bl"/><use transform="matrix(0.06944444444444445,0,0,0.06944444444444445,167.08333333333334,0)" xlink:href="#bt"/><use transform="matrix(0.06944444444444445,0,0,0.06944444444444445,243.54166666666669,0)" xlink:href="#be"/></g><path d="M338-670V0H158v-1118h173l1 207c72-158 192-221 342-221 226 0 378 139 378 422V0H872v-695c0-172-96-275-252-275-161 0-282 109-282 300" id="bu"/><path d="M577 24c-279 0-473-224-473-580 0-354 195-576 474-576 218 0 287 134 324 193h14v-551h180V0H922v-173h-20C865-111 790 24 577 24zm27-161c203 0 314-172 314-421 0-247-108-413-314-413-212 0-317 181-317 413 0 235 108 421 317 421" id="bv"/><g id="i"><use transform="matrix(0.06944444444444445,0,0,0.06944444444444445,0,0)" xlink:href="#bl"/><use transform="matrix(0.06944444444444445,0,0,0.06944444444444445,79.86111111111111,0)" xlink:href="#bu"/><use transform="matrix(0.06944444444444445,0,0,0.06944444444444445,163.8888888888889,0)" xlink:href="#bv"/></g><path d="M763 24c-353 0-583-224-583-531v-983h190v968c0 214 149 370 393 370 243 0 391-156 391-370v-968h190v983c0 307-230 531-581 531" id="bw"/><path d="M370-1490V0H180v-1490h190" id="bx"/><g id="j"><use transform="matrix(0.06944444444444445,0,0,0.06944444444444445,0,0)" xlink:href="#bw"/><use transform="matrix(0.06944444444444445,0,0,0.06944444444444445,105.83333333333334,0)" xlink:href="#bx"/></g><path d="M338-1490V0H158v-1490h180" id="by"/><g id="k"><use transform="matrix(0.06944444444444445,0,0,0.06944444444444445,0,0)" xlink:href="#be"/><use transform="matrix(0.06944444444444445,0,0,0.06944444444444445,82.91666666666667,0)" xlink:href="#by"/><use transform="matrix(0.06944444444444445,0,0,0.06944444444444445,117.36111111111111,0)" xlink:href="#be"/><use transform="matrix(0.06944444444444445,0,0,0.06944444444444445,200.2777777777778,0)" xlink:href="#bm"/><use transform="matrix(0.06944444444444445,0,0,0.06944444444444445,324.8611111111111,0)" xlink:href="#be"/><use transform="matrix(0.06944444444444445,0,0,0.06944444444444445,407.77777777777777,0)" xlink:href="#bu"/><use transform="matrix(0.06944444444444445,0,0,0.06944444444444445,491.8055555555555,0)" xlink:href="#bg"/></g><path d="M613 24c-304 0-509-231-509-576 0-350 205-580 509-580 305 0 511 230 511 580 0 345-206 576-511 576zm0-161c226 0 329-195 329-415 0-222-103-419-329-419-223 0-326 196-326 419 0 220 103 415 326 415" id="bz"/><path d="M158 0v-1118h174v172h12c41-113 157-188 290-188 26 0 70 2 91 3v181c-11-2-60-10-108-10-161 0-279 109-279 260V0H158" id="bA"/><g id="l"><use transform="matrix(0.06944444444444445,0,0,0.06944444444444445,0,0)" xlink:href="#bz"/><use transform="matrix(0.06944444444444445,0,0,0.06944444444444445,82.50000000000001,0)" xlink:href="#bn"/><use transform="matrix(0.06944444444444445,0,0,0.06944444444444445,159.65277777777777,0)" xlink:href="#be"/><use transform="matrix(0.06944444444444445,0,0,0.06944444444444445,242.56944444444446,0)" xlink:href="#bA"/><use transform="matrix(0.06944444444444445,0,0,0.06944444444444445,298.33333333333337,0)" xlink:href="#by"/><use transform="matrix(0.06944444444444445,0,0,0.06944444444444445,332.7777777777778,0)" xlink:href="#bl"/><use transform="matrix(0.06944444444444445,0,0,0.06944444444444445,412.6388888888889,0)" xlink:href="#bo"/><use transform="matrix(0.06944444444444445,0,0,0.06944444444444445,447.08333333333337,0)" xlink:href="#bv"/></g><image width="10" height="10" id="bB" xlink:href="https://images.lucid.app/images/1dcdc5f8-f735-420e-afea-b0cb65e8bf0b/content" preserveAspectRatio="none"/><pattern id="m" patternUnits="userSpaceOnUse" x="-10080" y="-4424.27" width="2040.85" height="2040.85"><use xlink:href="#bB" transform="translate(0, 0) scale(204.08510638297872,204.08510638297872)"/></pattern><path d="M653-1490V0H466v-1314h-10L96-1047v-204l324-239h233" id="bC"/><g id="n"><use transform="matrix(0.06944444444444445,0,0,0.06944444444444445,0,0)" xlink:href="#bC"/><use transform="matrix(0.06944444444444445,0,0,0.06944444444444445,57.84722222222222,0)" xlink:href="#bj"/></g><path d="M783 20c-382 0-661-292-661-764 0-473 279-766 661-766 302 0 548 182 601 489h-190c-42-204-217-313-411-313-268 0-476 208-476 590 0 381 209 588 476 588 195 0 369-110 411-313h190c-52 303-296 489-601 489" id="bD"/><path d="M537 14c-226 0-379-139-379-422v-710h180v695c0 172 97 275 253 275 160 0 281-109 281-300v-670h181V0H879v-209C806-46 684 14 537 14" id="bE"/><g id="o"><use transform="matrix(0.06944444444444445,0,0,0.06944444444444445,0,0)" xlink:href="#bD"/><use transform="matrix(0.06944444444444445,0,0,0.06944444444444445,103.8888888888889,0)" xlink:href="#bE"/><use transform="matrix(0.06944444444444445,0,0,0.06944444444444445,187.98611111111114,0)" xlink:href="#bA"/><use transform="matrix(0.06944444444444445,0,0,0.06944444444444445,243.75000000000003,0)" xlink:href="#bA"/><use transform="matrix(0.06944444444444445,0,0,0.06944444444444445,294.93055555555554,0)" xlink:href="#be"/><use transform="matrix(0.06944444444444445,0,0,0.06944444444444445,377.8472222222223,0)" xlink:href="#bu"/><use transform="matrix(0.06944444444444445,0,0,0.06944444444444445,461.87500000000006,0)" xlink:href="#bg"/></g><path d="M538 24C308 24 148-78 108-271l171-41c32 123 123 178 257 178 156 0 256-77 256-169 0-77-54-128-164-154l-186-44c-203-48-300-148-300-305 0-192 176-326 414-326 230 0 351 112 402 269l-163 42c-31-80-94-158-238-158-133 0-233 69-233 162 0 83 57 129 188 160l169 40c203 48 298 149 298 302 0 196-179 339-441 339" id="bF"/><g id="p"><use transform="matrix(0.06944444444444445,0,0,0.06944444444444445,0,0)" xlink:href="#bE"/><use transform="matrix(0.06944444444444445,0,0,0.06944444444444445,84.09722222222223,0)" xlink:href="#bF"/><use transform="matrix(0.06944444444444445,0,0,0.06944444444444445,159.16666666666669,0)" xlink:href="#be"/><use transform="matrix(0.06944444444444445,0,0,0.06944444444444445,242.08333333333337,0)" xlink:href="#bA"/></g><g id="q"><use transform="matrix(0.06944444444444445,0,0,0.06944444444444445,0,0)" xlink:href="#bn"/><use transform="matrix(0.06944444444444445,0,0,0.06944444444444445,79.93055555555556,0)" xlink:href="#bo"/><use transform="matrix(0.06944444444444445,0,0,0.06944444444444445,114.375,0)" xlink:href="#be"/><use transform="matrix(0.06944444444444445,0,0,0.06944444444444445,194.72222222222223,0)" xlink:href="#bp"/></g><path d="M635 20c-292 0-500-160-510-396h192c11 142 145 229 315 229 187 0 323-105 323-260 0-161-125-274-346-274H488v-165h121c174 0 294-100 294-254 0-148-104-245-266-245-152 0-291 85-297 230H157c8-234 222-395 484-395 278 0 448 188 448 400 0 168-95 291-247 336v12c190 31 301 169 301 357 0 244-216 425-508 425" id="bG"/><g id="r"><use transform="matrix(0.06944444444444445,0,0,0.06944444444444445,0,0)" xlink:href="#bG"/><use transform="matrix(0.06944444444444445,0,0,0.06944444444444445,84.65277777777779,0)" xlink:href="#bj"/></g><g id="s"><use transform="matrix(0.06944444444444445,0,0,0.06944444444444445,0,0)" xlink:href="#bd"/><use transform="matrix(0.06944444444444445,0,0,0.06944444444444445,80.69444444444444,0)" xlink:href="#be"/><use transform="matrix(0.06944444444444445,0,0,0.06944444444444445,160.41666666666669,0)" xlink:href="#bf"/><use transform="matrix(0.06944444444444445,0,0,0.06944444444444445,240.83333333333334,0)" xlink:href="#bg"/></g><path d="M613 24c-304 0-509-231-509-576 0-350 205-580 509-580 216 0 392 114 453 309l-173 49c-33-115-133-197-280-197-223 0-326 196-326 419 0 220 103 415 326 415 150 0 252-85 285-206l172 49C1010-95 832 24 613 24" id="bH"/><g id="t"><use transform="matrix(0.06944444444444445,0,0,0.06944444444444445,0,0)" xlink:href="#bo"/><use transform="matrix(0.06944444444444445,0,0,0.06944444444444445,34.44444444444444,0)" xlink:href="#bu"/><use transform="matrix(0.06944444444444445,0,0,0.06944444444444445,118.47222222222223,0)" xlink:href="#bF"/><use transform="matrix(0.06944444444444445,0,0,0.06944444444444445,193.54166666666669,0)" xlink:href="#bg"/><use transform="matrix(0.06944444444444445,0,0,0.06944444444444445,240.06944444444446,0)" xlink:href="#bA"/><use transform="matrix(0.06944444444444445,0,0,0.06944444444444445,293.61111111111114,0)" xlink:href="#bE"/><use transform="matrix(0.06944444444444445,0,0,0.06944444444444445,377.70833333333337,0)" xlink:href="#bH"/><use transform="matrix(0.06944444444444445,0,0,0.06944444444444445,458.95833333333337,0)" xlink:href="#bg"/><use transform="matrix(0.06944444444444445,0,0,0.06944444444444445,505.48611111111114,0)" xlink:href="#bo"/><use transform="matrix(0.06944444444444445,0,0,0.06944444444444445,539.9305555555555,0)" xlink:href="#bz"/><use transform="matrix(0.06944444444444445,0,0,0.06944444444444445,625.2083333333334,0)" xlink:href="#bu"/></g><path d="M158 418v-1536h174v179h20c37-59 106-193 324-193 279 0 474 222 474 576 0 356-194 580-473 580-213 0-288-135-325-197h-14v591H158zm492-555c209 0 317-186 317-421 0-232-105-413-317-413-206 0-314 166-314 413 0 249 111 421 314 421" id="bI"/><g id="u"><use transform="matrix(0.06944444444444445,0,0,0.06944444444444445,0,0)" xlink:href="#bD"/><use transform="matrix(0.06944444444444445,0,0,0.06944444444444445,103.8888888888889,0)" xlink:href="#bz"/><use transform="matrix(0.06944444444444445,0,0,0.06944444444444445,189.16666666666669,0)" xlink:href="#bm"/><use transform="matrix(0.06944444444444445,0,0,0.06944444444444445,313.75,0)" xlink:href="#bI"/><use transform="matrix(0.06944444444444445,0,0,0.06944444444444445,402.2222222222223,0)" xlink:href="#bl"/><use transform="matrix(0.06944444444444445,0,0,0.06944444444444445,482.08333333333337,0)" xlink:href="#bA"/><use transform="matrix(0.06944444444444445,0,0,0.06944444444444445,533.2638888888889,0)" xlink:href="#be"/></g><g id="v"><use transform="matrix(0.06944444444444445,0,0,0.06944444444444445,0,0)" xlink:href="#bg"/><use transform="matrix(0.06944444444444445,0,0,0.06944444444444445,46.52777777777778,0)" xlink:href="#bq"/><use transform="matrix(0.06944444444444445,0,0,0.06944444444444445,130.625,0)" xlink:href="#be"/><use transform="matrix(0.06944444444444445,0,0,0.06944444444444445,213.54166666666669,0)" xlink:href="#bF"/><use transform="matrix(0.06944444444444445,0,0,0.06944444444444445,288.61111111111114,0)" xlink:href="#be"/></g><g id="w"><use transform="matrix(0.06944444444444445,0,0,0.06944444444444445,0,0)" xlink:href="#bg"/><use transform="matrix(0.06944444444444445,0,0,0.06944444444444445,48.611111111111114,0)" xlink:href="#bp"/><use transform="matrix(0.06944444444444445,0,0,0.06944444444444445,162.43055555555557,0)" xlink:href="#bz"/></g><g id="x"><use transform="matrix(0.06944444444444445,0,0,0.06944444444444445,0,0)" xlink:href="#bo"/><use transform="matrix(0.06944444444444445,0,0,0.06944444444444445,34.44444444444444,0)" xlink:href="#bv"/><use transform="matrix(0.06944444444444445,0,0,0.06944444444444445,121.52777777777779,0)" xlink:href="#be"/><use transform="matrix(0.06944444444444445,0,0,0.06944444444444445,204.44444444444446,0)" xlink:href="#bu"/><use transform="matrix(0.06944444444444445,0,0,0.06944444444444445,288.47222222222223,0)" xlink:href="#bg"/><use transform="matrix(0.06944444444444445,0,0,0.06944444444444445,335,0)" xlink:href="#bo"/><use transform="matrix(0.06944444444444445,0,0,0.06944444444444445,369.44444444444446,0)" xlink:href="#bH"/><use transform="matrix(0.06944444444444445,0,0,0.06944444444444445,452.08333333333337,0)" xlink:href="#bl"/><use transform="matrix(0.06944444444444445,0,0,0.06944444444444445,531.9444444444445,0)" xlink:href="#by"/></g><g id="y"><use transform="matrix(0.06944444444444445,0,0,0.06944444444444445,0,0)" xlink:href="#bn"/><use transform="matrix(0.06944444444444445,0,0,0.06944444444444445,79.93055555555556,0)" xlink:href="#bo"/><use transform="matrix(0.06944444444444445,0,0,0.06944444444444445,114.375,0)" xlink:href="#be"/><use transform="matrix(0.06944444444444445,0,0,0.06944444444444445,194.72222222222223,0)" xlink:href="#bp"/><use transform="matrix(0.06944444444444445,0,0,0.06944444444444445,311.11111111111114,0)" xlink:href="#bF"/></g><path d="M678-1118v154H420V0H240v-964H20v-154h220v-149c0-194 155-293 318-293 85 0 141 18 168 30l-50 154c-19-6-47-17-97-17-111 0-159 58-159 166v109h258" id="bJ"/><g id="z"><use transform="matrix(0.06944444444444445,0,0,0.06944444444444445,0,0)" xlink:href="#bJ"/><use transform="matrix(0.06944444444444445,0,0,0.06944444444444445,52.63888888888889,0)" xlink:href="#bA"/><use transform="matrix(0.06944444444444445,0,0,0.06944444444444445,103.81944444444447,0)" xlink:href="#bz"/><use transform="matrix(0.06944444444444445,0,0,0.06944444444444445,189.09722222222223,0)" xlink:href="#bm"/></g><use transform="matrix(0.06944444444444445,0,0,0.06944444444444445,0,0)" xlink:href="#bl" id="A"/><path d="M798-719v166H144v-166h654" id="bK"/><g id="B"><use transform="matrix(0.06944444444444445,0,0,0.06944444444444445,0,0)" xlink:href="#bq"/><use transform="matrix(0.06944444444444445,0,0,0.06944444444444445,84.09722222222223,0)" xlink:href="#be"/><use transform="matrix(0.06944444444444445,0,0,0.06944444444444445,168.40277777777777,0)" xlink:href="#bl"/><use transform="matrix(0.06944444444444445,0,0,0.06944444444444445,248.26388888888889,0)" xlink:href="#bv"/><use transform="matrix(0.06944444444444445,0,0,0.06944444444444445,335.34722222222223,0)" xlink:href="#bK"/><use transform="matrix(0.06944444444444445,0,0,0.06944444444444445,400.7638888888889,0)" xlink:href="#bm"/><use transform="matrix(0.06944444444444445,0,0,0.06944444444444445,525.3472222222223,0)" xlink:href="#bz"/><use transform="matrix(0.06944444444444445,0,0,0.06944444444444445,610.6250000000001,0)" xlink:href="#bE"/><use transform="matrix(0.06944444444444445,0,0,0.06944444444444445,694.7222222222224,0)" xlink:href="#bu"/><use transform="matrix(0.06944444444444445,0,0,0.06944444444444445,778.7500000000003,0)" xlink:href="#bg"/><use transform="matrix(0.06944444444444445,0,0,0.06944444444444445,823.8888888888891,0)" xlink:href="#be"/><use transform="matrix(0.06944444444444445,0,0,0.06944444444444445,906.8055555555558,0)" xlink:href="#bv"/></g><g id="C"><use transform="matrix(0.06944444444444445,0,0,0.06944444444444445,0,0)" xlink:href="#bH"/><use transform="matrix(0.06944444444444445,0,0,0.06944444444444445,82.63888888888889,0)" xlink:href="#bl"/><use transform="matrix(0.06944444444444445,0,0,0.06944444444444445,162.5,0)" xlink:href="#bm"/><use transform="matrix(0.06944444444444445,0,0,0.06944444444444445,287.08333333333337,0)" xlink:href="#be"/><use transform="matrix(0.06944444444444445,0,0,0.06944444444444445,370.00000000000006,0)" xlink:href="#bA"/><use transform="matrix(0.06944444444444445,0,0,0.06944444444444445,423.54166666666674,0)" xlink:href="#bl"/><use transform="matrix(0.06944444444444445,0,0,0.06944444444444445,503.4027777777778,0)" xlink:href="#bj"/></g><g id="D"><use transform="matrix(0.06944444444444445,0,0,0.06944444444444445,0,0)" xlink:href="#bd"/><use transform="matrix(0.06944444444444445,0,0,0.06944444444444445,91.80555555555556,0)" xlink:href="#bq"/><use transform="matrix(0.06944444444444445,0,0,0.06944444444444445,175.90277777777777,0)" xlink:href="#be"/></g><g id="E"><use transform="matrix(0.06944444444444445,0,0,0.06944444444444445,0,0)" xlink:href="#bA"/><use transform="matrix(0.06944444444444445,0,0,0.06944444444444445,55.76388888888889,0)" xlink:href="#bo"/><use transform="matrix(0.06944444444444445,0,0,0.06944444444444445,90.20833333333334,0)" xlink:href="#bs"/><use transform="matrix(0.06944444444444445,0,0,0.06944444444444445,177.43055555555557,0)" xlink:href="#bq"/><use transform="matrix(0.06944444444444445,0,0,0.06944444444444445,261.5277777777778,0)" xlink:href="#bg"/></g><g id="F"><use transform="matrix(0.06944444444444445,0,0,0.06944444444444445,0,0)" xlink:href="#bo"/><use transform="matrix(0.06944444444444445,0,0,0.06944444444444445,34.44444444444444,0)" xlink:href="#bm"/><use transform="matrix(0.06944444444444445,0,0,0.06944444444444445,159.02777777777777,0)" xlink:href="#bl"/><use transform="matrix(0.06944444444444445,0,0,0.06944444444444445,238.88888888888889,0)" xlink:href="#bs"/><use transform="matrix(0.06944444444444445,0,0,0.06944444444444445,326.1111111111111,0)" xlink:href="#be"/></g><g id="G"><use transform="matrix(0.06944444444444445,0,0,0.06944444444444445,0,0)" xlink:href="#bq"/><use transform="matrix(0.06944444444444445,0,0,0.06944444444444445,84.09722222222223,0)" xlink:href="#bl"/><use transform="matrix(0.06944444444444445,0,0,0.06944444444444445,163.95833333333334,0)" xlink:href="#bF"/></g><g id="H"><use transform="matrix(0.06944444444444445,0,0,0.06944444444444445,0,0)" xlink:href="#bA"/><use transform="matrix(0.06944444444444445,0,0,0.06944444444444445,51.18055555555556,0)" xlink:href="#be"/><use transform="matrix(0.06944444444444445,0,0,0.06944444444444445,134.09722222222223,0)" xlink:href="#bv"/></g><g id="I"><use transform="matrix(0.06944444444444445,0,0,0.06944444444444445,0,0)" xlink:href="#bw"/><use transform="matrix(0.06944444444444445,0,0,0.06944444444444445,105.83333333333334,0)" xlink:href="#bx"/></g><g id="J"><use transform="matrix(0.06944444444444445,0,0,0.06944444444444445,0,0)" xlink:href="#be"/><use transform="matrix(0.06944444444444445,0,0,0.06944444444444445,82.91666666666667,0)" xlink:href="#by"/><use transform="matrix(0.06944444444444445,0,0,0.06944444444444445,117.36111111111111,0)" xlink:href="#be"/><use transform="matrix(0.06944444444444445,0,0,0.06944444444444445,200.2777777777778,0)" xlink:href="#bm"/><use transform="matrix(0.06944444444444445,0,0,0.06944444444444445,324.8611111111111,0)" xlink:href="#be"/><use transform="matrix(0.06944444444444445,0,0,0.06944444444444445,407.77777777777777,0)" xlink:href="#bu"/><use transform="matrix(0.06944444444444445,0,0,0.06944444444444445,491.8055555555555,0)" xlink:href="#bg"/></g><g id="K"><use transform="matrix(0.06944444444444445,0,0,0.06944444444444445,0,0)" xlink:href="#bz"/><use transform="matrix(0.06944444444444445,0,0,0.06944444444444445,82.50000000000001,0)" xlink:href="#bn"/><use transform="matrix(0.06944444444444445,0,0,0.06944444444444445,159.65277777777777,0)" xlink:href="#be"/><use transform="matrix(0.06944444444444445,0,0,0.06944444444444445,242.56944444444446,0)" xlink:href="#bA"/><use transform="matrix(0.06944444444444445,0,0,0.06944444444444445,298.33333333333337,0)" xlink:href="#by"/><use transform="matrix(0.06944444444444445,0,0,0.06944444444444445,332.7777777777778,0)" xlink:href="#bl"/><use transform="matrix(0.06944444444444445,0,0,0.06944444444444445,410.55555555555566,0)" xlink:href="#br"/><use transform="matrix(0.06944444444444445,0,0,0.06944444444444445,484.2361111111112,0)" xlink:href="#bj"/></g><g id="L"><use transform="matrix(0.06944444444444445,0,0,0.06944444444444445,0,0)" xlink:href="#bk"/><use transform="matrix(0.06944444444444445,0,0,0.06944444444444445,91.25,0)" xlink:href="#bq"/><use transform="matrix(0.06944444444444445,0,0,0.06944444444444445,175.34722222222223,0)" xlink:href="#bz"/><use transform="matrix(0.06944444444444445,0,0,0.06944444444444445,260.625,0)" xlink:href="#bE"/><use transform="matrix(0.06944444444444445,0,0,0.06944444444444445,344.72222222222223,0)" xlink:href="#by"/><use transform="matrix(0.06944444444444445,0,0,0.06944444444444445,379.1666666666667,0)" xlink:href="#bv"/></g><g id="M"><use transform="matrix(0.06944444444444445,0,0,0.06944444444444445,0,0)" xlink:href="#bg"/><use transform="matrix(0.06944444444444445,0,0,0.06944444444444445,46.52777777777778,0)" xlink:href="#bq"/><use transform="matrix(0.06944444444444445,0,0,0.06944444444444445,130.625,0)" xlink:href="#be"/></g><path d="M677 24c-213 0-288-135-325-197h-20V0H158v-1490h180v551h14c37-59 106-193 324-193 279 0 474 222 474 576 0 356-194 580-473 580zm-27-161c209 0 317-186 317-421 0-232-105-413-317-413-206 0-314 166-314 413 0 249 111 421 314 421" id="bL"/><g id="N"><use transform="matrix(0.06944444444444445,0,0,0.06944444444444445,0,0)" xlink:href="#bL"/><use transform="matrix(0.06944444444444445,0,0,0.06944444444444445,87.08333333333334,0)" xlink:href="#be"/></g><g id="O"><use transform="matrix(0.06944444444444445,0,0,0.06944444444444445,0,0)" xlink:href="#bn"/><use transform="matrix(0.06944444444444445,0,0,0.06944444444444445,79.93055555555556,0)" xlink:href="#bo"/><use transform="matrix(0.06944444444444445,0,0,0.06944444444444445,114.375,0)" xlink:href="#bF"/><use transform="matrix(0.06944444444444445,0,0,0.06944444444444445,189.44444444444446,0)" xlink:href="#bo"/><use transform="matrix(0.06944444444444445,0,0,0.06944444444444445,223.88888888888889,0)" xlink:href="#bL"/><use transform="matrix(0.06944444444444445,0,0,0.06944444444444445,310.9722222222223,0)" xlink:href="#by"/><use transform="matrix(0.06944444444444445,0,0,0.06944444444444445,345.41666666666674,0)" xlink:href="#be"/></g><g id="P"><use transform="matrix(0.06944444444444445,0,0,0.06944444444444445,0,0)" xlink:href="#bo"/><use transform="matrix(0.06944444444444445,0,0,0.06944444444444445,34.44444444444444,0)" xlink:href="#bu"/></g><path d="M160-923l88-567h206L298-923H160" id="bM"/><g id="Q"><use transform="matrix(0.06944444444444445,0,0,0.06944444444444445,0,0)" xlink:href="#bE"/><use transform="matrix(0.06944444444444445,0,0,0.06944444444444445,84.09722222222223,0)" xlink:href="#bF"/><use transform="matrix(0.06944444444444445,0,0,0.06944444444444445,159.16666666666669,0)" xlink:href="#be"/><use transform="matrix(0.06944444444444445,0,0,0.06944444444444445,242.08333333333337,0)" xlink:href="#bA"/><use transform="matrix(0.06944444444444445,0,0,0.06944444444444445,297.8472222222223,0)" xlink:href="#bM"/><use transform="matrix(0.06944444444444445,0,0,0.06944444444444445,324.0277777777778,0)" xlink:href="#bF"/></g><g id="R"><use transform="matrix(0.06944444444444445,0,0,0.06944444444444445,0,0)" xlink:href="#bH"/><use transform="matrix(0.06944444444444445,0,0,0.06944444444444445,81.25,0)" xlink:href="#bE"/><use transform="matrix(0.06944444444444445,0,0,0.06944444444444445,165.34722222222223,0)" xlink:href="#bA"/><use transform="matrix(0.06944444444444445,0,0,0.06944444444444445,221.11111111111114,0)" xlink:href="#bA"/><use transform="matrix(0.06944444444444445,0,0,0.06944444444444445,272.2916666666667,0)" xlink:href="#be"/><use transform="matrix(0.06944444444444445,0,0,0.06944444444444445,355.20833333333337,0)" xlink:href="#bu"/><use transform="matrix(0.06944444444444445,0,0,0.06944444444444445,439.23611111111114,0)" xlink:href="#bg"/></g><g id="S"><use transform="matrix(0.06944444444444445,0,0,0.06944444444444445,0,0)" xlink:href="#bJ"/><use transform="matrix(0.06944444444444445,0,0,0.06944444444444445,52.63888888888889,0)" xlink:href="#bo"/><use transform="matrix(0.06944444444444445,0,0,0.06944444444444445,87.08333333333334,0)" xlink:href="#be"/><use transform="matrix(0.06944444444444445,0,0,0.06944444444444445,170,0)" xlink:href="#by"/><use transform="matrix(0.06944444444444445,0,0,0.06944444444444445,204.44444444444446,0)" xlink:href="#bv"/></g><g id="T"><use transform="matrix(0.06944444444444445,0,0,0.06944444444444445,0,0)" xlink:href="#bz"/><use transform="matrix(0.06944444444444445,0,0,0.06944444444444445,85.27777777777779,0)" xlink:href="#bJ"/></g><path d="M383-449c-3-277 82-343 222-425 88-53 156-134 156-250 0-139-108-227-243-227-118 0-235 70-246 236H82c10-251 200-395 436-395 259 0 427 165 427 393 0 161-74 273-203 352-132 80-180 132-178 316H383zm93 462c-75 0-135-60-135-134 0-75 60-135 135-135 74 0 134 60 134 135 0 74-60 134-134 134" id="bN"/><g id="U"><use transform="matrix(0.06944444444444445,0,0,0.06944444444444445,0,0)" xlink:href="#bn"/><use transform="matrix(0.06944444444444445,0,0,0.06944444444444445,79.93055555555556,0)" xlink:href="#bo"/><use transform="matrix(0.06944444444444445,0,0,0.06944444444444445,114.375,0)" xlink:href="#be"/><use transform="matrix(0.06944444444444445,0,0,0.06944444444444445,194.72222222222223,0)" xlink:href="#bp"/><use transform="matrix(0.06944444444444445,0,0,0.06944444444444445,311.11111111111114,0)" xlink:href="#bN"/></g><path d="M180 0v-1490h190v1322h690V0H180" id="bO"/><g id="V"><use transform="matrix(0.06944444444444445,0,0,0.06944444444444445,0,0)" xlink:href="#bO"/><use transform="matrix(0.06944444444444445,0,0,0.06944444444444445,80.41666666666667,0)" xlink:href="#bl"/><use transform="matrix(0.06944444444444445,0,0,0.06944444444444445,160.27777777777777,0)" xlink:href="#bu"/><use transform="matrix(0.06944444444444445,0,0,0.06944444444444445,244.30555555555554,0)" xlink:href="#bs"/><use transform="matrix(0.06944444444444445,0,0,0.06944444444444445,331.52777777777777,0)" xlink:href="#bE"/><use transform="matrix(0.06944444444444445,0,0,0.06944444444444445,415.625,0)" xlink:href="#bl"/><use transform="matrix(0.06944444444444445,0,0,0.06944444444444445,495.4861111111111,0)" xlink:href="#bs"/><use transform="matrix(0.06944444444444445,0,0,0.06944444444444445,582.7083333333333,0)" xlink:href="#be"/></g><g id="W"><use transform="matrix(0.06944444444444445,0,0,0.06944444444444445,0,0)" xlink:href="#bm"/><use transform="matrix(0.06944444444444445,0,0,0.06944444444444445,124.58333333333334,0)" xlink:href="#bz"/><use transform="matrix(0.06944444444444445,0,0,0.06944444444444445,209.86111111111114,0)" xlink:href="#bv"/><use transform="matrix(0.06944444444444445,0,0,0.06944444444444445,296.94444444444446,0)" xlink:href="#be"/><use transform="matrix(0.06944444444444445,0,0,0.06944444444444445,379.86111111111114,0)" xlink:href="#by"/></g><path d="M600 0L52-1490h200c166 485 304 806 458 1336 156-533 285-846 449-1336h202L819 0H600" id="bP"/><g id="X"><use transform="matrix(0.06944444444444445,0,0,0.06944444444444445,0,0)" xlink:href="#bP"/><use transform="matrix(0.06944444444444445,0,0,0.06944444444444445,98.125,0)" xlink:href="#bo"/><use transform="matrix(0.06944444444444445,0,0,0.06944444444444445,132.56944444444446,0)" xlink:href="#bF"/><use transform="matrix(0.06944444444444445,0,0,0.06944444444444445,207.63888888888894,0)" xlink:href="#bo"/><use transform="matrix(0.06944444444444445,0,0,0.06944444444444445,242.08333333333337,0)" xlink:href="#bz"/><use transform="matrix(0.06944444444444445,0,0,0.06944444444444445,327.36111111111114,0)" xlink:href="#bu"/></g><g id="Y"><use transform="matrix(0.06944444444444445,0,0,0.06944444444444445,0,0)" xlink:href="#bm"/><use transform="matrix(0.06944444444444445,0,0,0.06944444444444445,124.58333333333334,0)" xlink:href="#bz"/><use transform="matrix(0.06944444444444445,0,0,0.06944444444444445,209.86111111111114,0)" xlink:href="#bv"/><use transform="matrix(0.06944444444444445,0,0,0.06944444444444445,296.94444444444446,0)" xlink:href="#be"/><use transform="matrix(0.06944444444444445,0,0,0.06944444444444445,379.86111111111114,0)" xlink:href="#by"/></g><path d="M750 21c-371 0-615-218-615-544v-967h305v942c0 174 123 299 310 299s309-125 309-299v-942h306v967c0 326-247 544-615 544" id="bQ"/><path d="M128 0v-1118h300V0H128zm150-1264c-91 0-165-68-165-154 0-85 74-154 165-154 90 0 165 69 165 154 0 86-75 154-165 154" id="bR"/><path d="M571 0L49-1490h339c138 427 271 775 384 1244 111-471 237-815 371-1244h337L970 0H571" id="bS"/><path d="M135 0v-1490h305v1237h643V0H135" id="bT"/><path d="M49 0l509-1490h400L1480 0h-339l-115-346H497L386 0H49zm524-585h374c-75-213-124-402-192-666-66 268-110 453-182 666" id="bU"/><g id="Z"><use transform="matrix(0.09114583333333334,0,0,0.09114583333333334,0,0)" xlink:href="#bQ"/><use transform="matrix(0.09114583333333334,0,0,0.09114583333333334,136.62760416666669,0)" xlink:href="#bR"/><use transform="matrix(0.09114583333333334,0,0,0.09114583333333334,187.21354166666669,0)" xlink:href="#bS"/><use transform="matrix(0.09114583333333334,0,0,0.09114583333333334,326.57552083333337,0)" xlink:href="#bT"/><use transform="matrix(0.09114583333333334,0,0,0.09114583333333334,432.12239583333337,0)" xlink:href="#bU"/></g><g id="aa"><use transform="matrix(0.09114583333333334,0,0,0.09114583333333334,0,0)" xlink:href="#bP"/><use transform="matrix(0.09114583333333334,0,0,0.09114583333333334,128.7890625,0)" xlink:href="#bo"/><use transform="matrix(0.09114583333333334,0,0,0.09114583333333334,173.99739583333334,0)" xlink:href="#bF"/><use transform="matrix(0.09114583333333334,0,0,0.09114583333333334,272.5260416666667,0)" xlink:href="#bo"/><use transform="matrix(0.09114583333333334,0,0,0.09114583333333334,317.734375,0)" xlink:href="#bz"/><use transform="matrix(0.09114583333333334,0,0,0.09114583333333334,429.66145833333337,0)" xlink:href="#bu"/><use transform="matrix(0.09114583333333334,0,0,0.09114583333333334,539.9479166666667,0)" xlink:href="#bK"/><use transform="matrix(0.09114583333333334,0,0,0.09114583333333334,625.8072916666667,0)" xlink:href="#bO"/><use transform="matrix(0.09114583333333334,0,0,0.09114583333333334,731.3541666666667,0)" xlink:href="#bl"/><use transform="matrix(0.09114583333333334,0,0,0.09114583333333334,836.1718750000001,0)" xlink:href="#bu"/><use transform="matrix(0.09114583333333334,0,0,0.09114583333333334,946.4583333333335,0)" xlink:href="#bs"/><use transform="matrix(0.09114583333333334,0,0,0.09114583333333334,1060.9375000000002,0)" xlink:href="#bE"/><use transform="matrix(0.09114583333333334,0,0,0.09114583333333334,1171.315104166667,0)" xlink:href="#bl"/><use transform="matrix(0.09114583333333334,0,0,0.09114583333333334,1276.1328125000002,0)" xlink:href="#bs"/><use transform="matrix(0.09114583333333334,0,0,0.09114583333333334,1390.611979166667,0)" xlink:href="#be"/></g><path d="M52 0l541-1490h220L1361 0h-200l-149-416H398L254 0H52zm404-582h497c-103-290-145-390-251-756-108 377-145 460-246 756" id="bV"/><g id="ab"><use transform="matrix(0.09114583333333334,0,0,0.09114583333333334,0,0)" xlink:href="#bV"/><use transform="matrix(0.09114583333333334,0,0,0.09114583333333334,128.7890625,0)" xlink:href="#bH"/><use transform="matrix(0.09114583333333334,0,0,0.09114583333333334,235.42968749999997,0)" xlink:href="#bg"/><use transform="matrix(0.09114583333333334,0,0,0.09114583333333334,296.49739583333337,0)" xlink:href="#bo"/><use transform="matrix(0.09114583333333334,0,0,0.09114583333333334,341.7057291666667,0)" xlink:href="#bz"/><use transform="matrix(0.09114583333333334,0,0,0.09114583333333334,453.63281249999994,0)" xlink:href="#bu"/></g><path d="M180 0v-1490h270l367 940c28 72 75 218 110 339 35-117 81-264 110-339l362-940h271V0h-187c2-448-5-837 7-1287-157 497-311 829-483 1287H842C666-458 514-784 354-1284c12 438 5 843 7 1284H180" id="bW"/><g id="ac"><use transform="matrix(0.09114583333333334,0,0,0.09114583333333334,0,0)" xlink:href="#bW"/><use transform="matrix(0.09114583333333334,0,0,0.09114583333333334,168.61979166666669,0)" xlink:href="#bz"/><use transform="matrix(0.09114583333333334,0,0,0.09114583333333334,280.546875,0)" xlink:href="#bv"/><use transform="matrix(0.09114583333333334,0,0,0.09114583333333334,394.84375000000006,0)" xlink:href="#be"/><use transform="matrix(0.09114583333333334,0,0,0.09114583333333334,503.67187499999994,0)" xlink:href="#by"/></g><path d="M180 0v-1490h901v168H370v510h643v168H370V0H180" id="bX"/><g id="ad"><use transform="matrix(0.07595486111111112,0,0,0.07595486111111112,0,0)" xlink:href="#bX"/><use transform="matrix(0.07595486111111112,0,0,0.07595486111111112,91.82942708333334,0)" xlink:href="#bo"/><use transform="matrix(0.07595486111111112,0,0,0.07595486111111112,129.50303819444446,0)" xlink:href="#bu"/><use transform="matrix(0.07595486111111112,0,0,0.07595486111111112,221.4084201388889,0)" xlink:href="#be"/><use transform="matrix(0.07595486111111112,0,0,0.07595486111111112,312.0985243055556,0)" xlink:href="#bK"/><use transform="matrix(0.07595486111111112,0,0,0.07595486111111112,383.6480034722223,0)" xlink:href="#bg"/><use transform="matrix(0.07595486111111112,0,0,0.07595486111111112,434.5377604166667,0)" xlink:href="#bE"/><use transform="matrix(0.07595486111111112,0,0,0.07595486111111112,526.5190972222223,0)" xlink:href="#bu"/><use transform="matrix(0.07595486111111112,0,0,0.07595486111111112,618.4244791666667,0)" xlink:href="#be"/></g><g id="ae"><use transform="matrix(0.07595486111111112,0,0,0.07595486111111112,0,0)" xlink:href="#bP"/><use transform="matrix(0.07595486111111112,0,0,0.07595486111111112,107.32421875000001,0)" xlink:href="#bO"/><use transform="matrix(0.07595486111111112,0,0,0.07595486111111112,195.27994791666669,0)" xlink:href="#bW"/></g><g id="af"><use transform="matrix(0.07595486111111112,0,0,0.07595486111111112,0,0)" xlink:href="#bp"/><use transform="matrix(0.07595486111111112,0,0,0.07595486111111112,127.30034722222223,0)" xlink:href="#bo"/><use transform="matrix(0.07595486111111112,0,0,0.07595486111111112,164.97395833333334,0)" xlink:href="#bg"/><use transform="matrix(0.07595486111111112,0,0,0.07595486111111112,215.8637152777778,0)" xlink:href="#bq"/></g><g id="ag"><use transform="matrix(0.07595486111111112,0,0,0.07595486111111112,0,0)" xlink:href="#bw"/><use transform="matrix(0.07595486111111112,0,0,0.07595486111111112,115.75520833333334,0)" xlink:href="#bx"/></g><g id="ah"><use transform="matrix(0.07595486111111112,0,0,0.07595486111111112,0,0)" xlink:href="#bl"/><use transform="matrix(0.07595486111111112,0,0,0.07595486111111112,87.34809027777779,0)" xlink:href="#bv"/><use transform="matrix(0.07595486111111112,0,0,0.07595486111111112,182.59548611111114,0)" xlink:href="#bl"/><use transform="matrix(0.07595486111111112,0,0,0.07595486111111112,269.9435763888889,0)" xlink:href="#bI"/><use transform="matrix(0.07595486111111112,0,0,0.07595486111111112,365.1909722222223,0)" xlink:href="#bg"/><use transform="matrix(0.07595486111111112,0,0,0.07595486111111112,416.8402777777778,0)" xlink:href="#bl"/><use transform="matrix(0.07595486111111112,0,0,0.07595486111111112,504.1883680555556,0)" xlink:href="#bg"/><use transform="matrix(0.07595486111111112,0,0,0.07595486111111112,555.078125,0)" xlink:href="#bo"/><use transform="matrix(0.07595486111111112,0,0,0.07595486111111112,592.7517361111111,0)" xlink:href="#bz"/><use transform="matrix(0.07595486111111112,0,0,0.07595486111111112,686.0243055555555,0)" xlink:href="#bu"/><use transform="matrix(0.07595486111111112,0,0,0.07595486111111112,777.9296874999999,0)" xlink:href="#bF"/></g><path d="M180 0v-1490h528c311 0 458 177 458 395 0 191-114 278-244 313v14c139 9 302 137 302 371 0 225-148 397-499 397H180zm190-168h350c232 0 321-102 321-231 0-149-120-277-311-277H370v508zm0-668h328c160 0 286-101 286-255 0-129-87-231-280-231H370v486" id="bY"/><g id="ai"><use transform="matrix(0.06944444444444445,0,0,0.06944444444444445,0,0)" xlink:href="#bY"/><use transform="matrix(0.06944444444444445,0,0,0.06944444444444445,93.05555555555556,0)" xlink:href="#bl"/><use transform="matrix(0.06944444444444445,0,0,0.06944444444444445,172.91666666666669,0)" xlink:href="#bF"/><use transform="matrix(0.06944444444444445,0,0,0.06944444444444445,247.98611111111114,0)" xlink:href="#be"/></g><g id="aj"><use transform="matrix(0.06944444444444445,0,0,0.06944444444444445,0,0)" xlink:href="#bP"/><use transform="matrix(0.06944444444444445,0,0,0.06944444444444445,98.125,0)" xlink:href="#bO"/><use transform="matrix(0.06944444444444445,0,0,0.06944444444444445,178.54166666666669,0)" xlink:href="#bW"/></g><path d="M218-607c0-325 108-727 258-974h175c-155 315-250 682-250 974 0 265 78 531 250 886H476C306-10 218-315 218-607" id="bZ"/><path d="M784 20c-382 0-662-292-662-764 0-473 280-766 662-766s660 293 660 766c0 282-99 499-260 629l192 255h-198L1049-33C969 2 880 20 784 20zm-62-486h198l156 205c112-98 183-261 183-483 0-383-209-590-475-590-268 0-477 208-477 590 0 380 209 588 477 588 54 0 106-9 154-25" id="ca"/><g id="ak"><use transform="matrix(0.06944444444444445,0,0,0.06944444444444445,0,0)" xlink:href="#bZ"/><use transform="matrix(0.06944444444444445,0,0,0.06944444444444445,51.875,0)" xlink:href="#ca"/><use transform="matrix(0.06944444444444445,0,0,0.06944444444444445,160.625,0)" xlink:href="#bp"/><use transform="matrix(0.06944444444444445,0,0,0.06944444444444445,274.44444444444446,0)" xlink:href="#be"/><use transform="matrix(0.06944444444444445,0,0,0.06944444444444445,357.36111111111114,0)" xlink:href="#bu"/></g><path d="M626 20c-262 0-458-168-468-396h184c12 133 134 229 284 229 180 0 311-137 311-326 0-192-136-335-323-335-92 0-196 33-255 78l-178-22 88-738h784v167H429l-51 435h8c61-51 160-87 263-87 273 0 474 211 474 499 0 286-210 496-497 496" id="cb"/><g id="al"><use transform="matrix(0.06944444444444445,0,0,0.06944444444444445,0,0)" xlink:href="#bi"/><use transform="matrix(0.06944444444444445,0,0,0.06944444444444445,86.73611111111111,0)" xlink:href="#bj"/><use transform="matrix(0.06944444444444445,0,0,0.06944444444444445,125.69444444444446,0)" xlink:href="#cb"/><use transform="matrix(0.06944444444444445,0,0,0.06944444444444445,212.1527777777778,0)" xlink:href="#bK"/><use transform="matrix(0.06944444444444445,0,0,0.06944444444444445,270.34722222222223,0)" xlink:href="#bP"/><use transform="matrix(0.06944444444444445,0,0,0.06944444444444445,368.47222222222223,0)" xlink:href="#bO"/></g><path d="M96 279C273-86 346-350 346-607c0-292-95-659-250-974h175c150 246 258 650 258 974 0 297-91 602-258 886H96" id="cc"/><g id="am"><use transform="matrix(0.06944444444444445,0,0,0.06944444444444445,0,0)" xlink:href="#bG"/><use transform="matrix(0.06944444444444445,0,0,0.06944444444444445,87.84722222222223,0)" xlink:href="#bY"/><use transform="matrix(0.06944444444444445,0,0,0.06944444444444445,180.9027777777778,0)" xlink:href="#cc"/></g><image width="10" height="10" id="cd" xlink:href="https://images.lucid.app/images/042a3ad5-d471-4c44-a5d1-c40629d8b76e/content" preserveAspectRatio="none"/><pattern id="an" patternUnits="userSpaceOnUse" x="-7759.33" y="3686.17" width="1985.69" height="1985.69"><use xlink:href="#cd" transform="translate(0, 0) scale(198.56867613296782,198.56867613296782)"/></pattern><path d="M342-723c-98 0-173-75-173-172s75-172 173-172 173 75 173 172-75 172-173 172zm0 742c-98 0-173-75-173-172s75-172 173-172 173 75 173 172S440 19 342 19" id="ce"/><g id="ao"><use transform="matrix(0.06944444444444445,0,0,0.06944444444444445,0,0)" xlink:href="#bQ"/><use transform="matrix(0.06944444444444445,0,0,0.06944444444444445,104.09722222222223,0)" xlink:href="#bR"/><use transform="matrix(0.06944444444444445,0,0,0.06944444444444445,142.6388888888889,0)" xlink:href="#bS"/><use transform="matrix(0.06944444444444445,0,0,0.06944444444444445,248.81944444444446,0)" xlink:href="#bT"/><use transform="matrix(0.06944444444444445,0,0,0.06944444444444445,329.23611111111114,0)" xlink:href="#bU"/><use transform="matrix(0.06944444444444445,0,0,0.06944444444444445,435.4166666666667,0)" xlink:href="#ce"/></g><path d="M180 0v-1490h224l606 953c40 63 108 177 176 312-27-437-7-821-13-1265h190V0h-226C860-448 622-778 356-1262c27 476 11 792 15 1262H180" id="cf"/><path d="M128 359l88-567h206L266 359H128" id="cg"/><g id="ap"><use transform="matrix(0.06944444444444445,0,0,0.06944444444444445,0,0)" xlink:href="#cf"/><use transform="matrix(0.06944444444444445,0,0,0.06944444444444445,107.15277777777779,0)" xlink:href="#bz"/><use transform="matrix(0.06944444444444445,0,0,0.06944444444444445,192.43055555555557,0)" xlink:href="#cg"/></g><g id="aq"><use transform="matrix(0.06944444444444445,0,0,0.06944444444444445,0,0)" xlink:href="#bA"/><use transform="matrix(0.06944444444444445,0,0,0.06944444444444445,51.18055555555556,0)" xlink:href="#be"/><use transform="matrix(0.06944444444444445,0,0,0.06944444444444445,134.09722222222223,0)" xlink:href="#bm"/><use transform="matrix(0.06944444444444445,0,0,0.06944444444444445,258.68055555555554,0)" xlink:href="#bz"/><use transform="matrix(0.06944444444444445,0,0,0.06944444444444445,341.18055555555554,0)" xlink:href="#bn"/><use transform="matrix(0.06944444444444445,0,0,0.06944444444444445,418.3333333333333,0)" xlink:href="#be"/></g><g id="ar"><use transform="matrix(0.06944444444444445,0,0,0.06944444444444445,0,0)" xlink:href="#be"/><use transform="matrix(0.06944444444444445,0,0,0.06944444444444445,82.91666666666667,0)" xlink:href="#by"/><use transform="matrix(0.06944444444444445,0,0,0.06944444444444445,117.36111111111111,0)" xlink:href="#be"/><use transform="matrix(0.06944444444444445,0,0,0.06944444444444445,200.2777777777778,0)" xlink:href="#bm"/><use transform="matrix(0.06944444444444445,0,0,0.06944444444444445,324.8611111111111,0)" xlink:href="#be"/><use transform="matrix(0.06944444444444445,0,0,0.06944444444444445,407.77777777777777,0)" xlink:href="#bu"/><use transform="matrix(0.06944444444444445,0,0,0.06944444444444445,491.8055555555555,0)" xlink:href="#bg"/><use transform="matrix(0.06944444444444445,0,0,0.06944444444444445,538.3333333333334,0)" xlink:href="#bj"/></g><g id="as"><use transform="matrix(0.06944444444444445,0,0,0.06944444444444445,0,0)" xlink:href="#bo"/><use transform="matrix(0.06944444444444445,0,0,0.06944444444444445,34.44444444444444,0)" xlink:href="#bF"/></g><path d="M158 0v-1490h180v865h22l478-493h223L593-638 1096 0H865L456-523 338-412V0H158" id="ch"/><g id="at"><use transform="matrix(0.06944444444444445,0,0,0.06944444444444445,0,0)" xlink:href="#bL"/><use transform="matrix(0.06944444444444445,0,0,0.06944444444444445,87.08333333333334,0)" xlink:href="#by"/><use transform="matrix(0.06944444444444445,0,0,0.06944444444444445,121.52777777777779,0)" xlink:href="#bz"/><use transform="matrix(0.06944444444444445,0,0,0.06944444444444445,206.80555555555557,0)" xlink:href="#bH"/><use transform="matrix(0.06944444444444445,0,0,0.06944444444444445,288.05555555555554,0)" xlink:href="#ch"/><use transform="matrix(0.06944444444444445,0,0,0.06944444444444445,366.1111111111111,0)" xlink:href="#bo"/><use transform="matrix(0.06944444444444445,0,0,0.06944444444444445,400.5555555555556,0)" xlink:href="#bu"/><use transform="matrix(0.06944444444444445,0,0,0.06944444444444445,484.5833333333333,0)" xlink:href="#bs"/></g><g id="au"><use transform="matrix(0.06944444444444445,0,0,0.06944444444444445,0,0)" xlink:href="#bg"/><use transform="matrix(0.06944444444444445,0,0,0.06944444444444445,46.52777777777778,0)" xlink:href="#bq"/><use transform="matrix(0.06944444444444445,0,0,0.06944444444444445,130.625,0)" xlink:href="#be"/></g><path d="M232-923l-22-567h194l-22 567H232" id="ci"/><g id="av"><use transform="matrix(0.06944444444444445,0,0,0.06944444444444445,0,0)" xlink:href="#bE"/><use transform="matrix(0.06944444444444445,0,0,0.06944444444444445,84.09722222222223,0)" xlink:href="#bF"/><use transform="matrix(0.06944444444444445,0,0,0.06944444444444445,159.16666666666669,0)" xlink:href="#be"/><use transform="matrix(0.06944444444444445,0,0,0.06944444444444445,242.08333333333337,0)" xlink:href="#bA"/><use transform="matrix(0.06944444444444445,0,0,0.06944444444444445,295.62500000000006,0)" xlink:href="#ci"/><use transform="matrix(0.06944444444444445,0,0,0.06944444444444445,338.26388888888897,0)" xlink:href="#bF"/></g><g id="aw"><use transform="matrix(0.06944444444444445,0,0,0.06944444444444445,0,0)" xlink:href="#bn"/><use transform="matrix(0.06944444444444445,0,0,0.06944444444444445,79.93055555555556,0)" xlink:href="#bo"/><use transform="matrix(0.06944444444444445,0,0,0.06944444444444445,114.375,0)" xlink:href="#be"/><use transform="matrix(0.06944444444444445,0,0,0.06944444444444445,194.72222222222223,0)" xlink:href="#bp"/></g><g id="ax"><use transform="matrix(0.06944444444444445,0,0,0.06944444444444445,0,0)" xlink:href="#bz"/><use transform="matrix(0.06944444444444445,0,0,0.06944444444444445,85.27777777777779,0)" xlink:href="#bg"/><use transform="matrix(0.06944444444444445,0,0,0.06944444444444445,131.80555555555557,0)" xlink:href="#bq"/><use transform="matrix(0.06944444444444445,0,0,0.06944444444444445,215.9027777777778,0)" xlink:href="#be"/><use transform="matrix(0.06944444444444445,0,0,0.06944444444444445,298.81944444444446,0)" xlink:href="#bA"/></g><g id="ay"><use transform="matrix(0.06944444444444445,0,0,0.06944444444444445,0,0)" xlink:href="#bI"/><use transform="matrix(0.06944444444444445,0,0,0.06944444444444445,87.08333333333334,0)" xlink:href="#be"/><use transform="matrix(0.06944444444444445,0,0,0.06944444444444445,170,0)" xlink:href="#bA"/><use transform="matrix(0.06944444444444445,0,0,0.06944444444444445,223.54166666666669,0)" xlink:href="#bF"/><use transform="matrix(0.06944444444444445,0,0,0.06944444444444445,298.61111111111114,0)" xlink:href="#bz"/><use transform="matrix(0.06944444444444445,0,0,0.06944444444444445,383.8888888888889,0)" xlink:href="#bu"/><use transform="matrix(0.06944444444444445,0,0,0.06944444444444445,467.9166666666667,0)" xlink:href="#bj"/></g><image width="10" height="10" id="cj" xlink:href="https://images.lucid.app/images/03c71c98-f4ac-4ed0-8a4d-34ef9ac7cebd/content" preserveAspectRatio="none"/><pattern id="az" patternUnits="userSpaceOnUse" x="-9987.59" y="3686.17" width="1985.69" height="1985.69"><use xlink:href="#cj" transform="translate(0, 0) scale(198.56867613296782,198.56867613296782)"/></pattern><path d="M572 22C302 22 117-98 78-306l279-48c29 105 101 156 224 156 114 0 185-48 185-115 0-118-228-130-337-155-215-49-322-150-322-317 0-215 187-347 470-347 265 0 424 116 466 298l-266 47c-24-76-87-130-196-130-98 0-174 46-174 113 0 56 38 95 144 117l201 40c216 44 320 143 320 302 0 220-207 367-500 367" id="ck"/><path d="M633 22C291 22 81-200 81-553c0-345 210-579 537-579 292 0 525 185 525 567v84H378c7 183 109 277 260 277 105 0 184-46 216-132l272 51C1071-99 893 22 633 22zM380-669h474c-15-146-94-237-233-237-143 0-229 99-241 237" id="cl"/><path d="M128 0v-1118h290v195h12c54-169 184-238 367-200v268c-27-8-86-15-130-15-138 0-239 95-239 234V0H128" id="cm"/><g id="aA"><use transform="matrix(0.06944444444444445,0,0,0.06944444444444445,0,0)" xlink:href="#bQ"/><use transform="matrix(0.06944444444444445,0,0,0.06944444444444445,104.09722222222223,0)" xlink:href="#ck"/><use transform="matrix(0.06944444444444445,0,0,0.06944444444444445,183.75,0)" xlink:href="#cl"/><use transform="matrix(0.06944444444444445,0,0,0.06944444444444445,268.47222222222223,0)" xlink:href="#cm"/><use transform="matrix(0.06944444444444445,0,0,0.06944444444444445,326.3888888888889,0)" xlink:href="#ce"/></g><g id="aB"><use transform="matrix(0.06944444444444445,0,0,0.06944444444444445,0,0)" xlink:href="#bD"/><use transform="matrix(0.06944444444444445,0,0,0.06944444444444445,103.8888888888889,0)" xlink:href="#bz"/><use transform="matrix(0.06944444444444445,0,0,0.06944444444444445,189.16666666666669,0)" xlink:href="#bm"/><use transform="matrix(0.06944444444444445,0,0,0.06944444444444445,313.75,0)" xlink:href="#bI"/><use transform="matrix(0.06944444444444445,0,0,0.06944444444444445,402.2222222222223,0)" xlink:href="#bl"/><use transform="matrix(0.06944444444444445,0,0,0.06944444444444445,482.08333333333337,0)" xlink:href="#bA"/><use transform="matrix(0.06944444444444445,0,0,0.06944444444444445,533.2638888888889,0)" xlink:href="#be"/></g><g id="aC"><use transform="matrix(0.06944444444444445,0,0,0.06944444444444445,0,0)" xlink:href="#bg"/><use transform="matrix(0.06944444444444445,0,0,0.06944444444444445,46.52777777777778,0)" xlink:href="#bq"/><use transform="matrix(0.06944444444444445,0,0,0.06944444444444445,130.625,0)" xlink:href="#be"/><use transform="matrix(0.06944444444444445,0,0,0.06944444444444445,213.54166666666669,0)" xlink:href="#bF"/><use transform="matrix(0.06944444444444445,0,0,0.06944444444444445,288.61111111111114,0)" xlink:href="#be"/></g><g id="aD"><use transform="matrix(0.06944444444444445,0,0,0.06944444444444445,0,0)" xlink:href="#bg"/><use transform="matrix(0.06944444444444445,0,0,0.06944444444444445,48.611111111111114,0)" xlink:href="#bp"/><use transform="matrix(0.06944444444444445,0,0,0.06944444444444445,162.43055555555557,0)" xlink:href="#bz"/></g><g id="aE"><use transform="matrix(0.06944444444444445,0,0,0.06944444444444445,0,0)" xlink:href="#bo"/><use transform="matrix(0.06944444444444445,0,0,0.06944444444444445,34.44444444444444,0)" xlink:href="#bv"/><use transform="matrix(0.06944444444444445,0,0,0.06944444444444445,121.52777777777779,0)" xlink:href="#be"/><use transform="matrix(0.06944444444444445,0,0,0.06944444444444445,204.44444444444446,0)" xlink:href="#bu"/><use transform="matrix(0.06944444444444445,0,0,0.06944444444444445,288.47222222222223,0)" xlink:href="#bg"/><use transform="matrix(0.06944444444444445,0,0,0.06944444444444445,335,0)" xlink:href="#bo"/><use transform="matrix(0.06944444444444445,0,0,0.06944444444444445,369.44444444444446,0)" xlink:href="#bH"/><use transform="matrix(0.06944444444444445,0,0,0.06944444444444445,452.08333333333337,0)" xlink:href="#bl"/><use transform="matrix(0.06944444444444445,0,0,0.06944444444444445,531.9444444444445,0)" xlink:href="#by"/></g><g id="aF"><use transform="matrix(0.06944444444444445,0,0,0.06944444444444445,0,0)" xlink:href="#bn"/><use transform="matrix(0.06944444444444445,0,0,0.06944444444444445,79.93055555555556,0)" xlink:href="#bo"/><use transform="matrix(0.06944444444444445,0,0,0.06944444444444445,114.375,0)" xlink:href="#be"/><use transform="matrix(0.06944444444444445,0,0,0.06944444444444445,194.72222222222223,0)" xlink:href="#bp"/><use transform="matrix(0.06944444444444445,0,0,0.06944444444444445,311.11111111111114,0)" xlink:href="#bF"/></g><g id="aG"><use transform="matrix(0.06944444444444445,0,0,0.06944444444444445,0,0)" xlink:href="#bJ"/><use transform="matrix(0.06944444444444445,0,0,0.06944444444444445,52.63888888888889,0)" xlink:href="#bA"/><use transform="matrix(0.06944444444444445,0,0,0.06944444444444445,103.81944444444447,0)" xlink:href="#bz"/><use transform="matrix(0.06944444444444445,0,0,0.06944444444444445,189.09722222222223,0)" xlink:href="#bm"/></g><use transform="matrix(0.06944444444444445,0,0,0.06944444444444445,0,0)" xlink:href="#bl" id="aH"/><g id="aI"><use transform="matrix(0.06944444444444445,0,0,0.06944444444444445,0,0)" xlink:href="#bq"/><use transform="matrix(0.06944444444444445,0,0,0.06944444444444445,84.09722222222223,0)" xlink:href="#be"/><use transform="matrix(0.06944444444444445,0,0,0.06944444444444445,168.40277777777777,0)" xlink:href="#bl"/><use transform="matrix(0.06944444444444445,0,0,0.06944444444444445,248.26388888888889,0)" xlink:href="#bv"/><use transform="matrix(0.06944444444444445,0,0,0.06944444444444445,335.34722222222223,0)" xlink:href="#bK"/><use transform="matrix(0.06944444444444445,0,0,0.06944444444444445,400.7638888888889,0)" xlink:href="#bm"/><use transform="matrix(0.06944444444444445,0,0,0.06944444444444445,525.3472222222223,0)" xlink:href="#bz"/><use transform="matrix(0.06944444444444445,0,0,0.06944444444444445,610.6250000000001,0)" xlink:href="#bE"/><use transform="matrix(0.06944444444444445,0,0,0.06944444444444445,694.7222222222224,0)" xlink:href="#bu"/><use transform="matrix(0.06944444444444445,0,0,0.06944444444444445,778.7500000000003,0)" xlink:href="#bg"/><use transform="matrix(0.06944444444444445,0,0,0.06944444444444445,823.8888888888891,0)" xlink:href="#be"/><use transform="matrix(0.06944444444444445,0,0,0.06944444444444445,906.8055555555558,0)" xlink:href="#bv"/></g><g id="aJ"><use transform="matrix(0.06944444444444445,0,0,0.06944444444444445,0,0)" xlink:href="#bH"/><use transform="matrix(0.06944444444444445,0,0,0.06944444444444445,82.63888888888889,0)" xlink:href="#bl"/><use transform="matrix(0.06944444444444445,0,0,0.06944444444444445,162.5,0)" xlink:href="#bm"/><use transform="matrix(0.06944444444444445,0,0,0.06944444444444445,287.08333333333337,0)" xlink:href="#be"/><use transform="matrix(0.06944444444444445,0,0,0.06944444444444445,370.00000000000006,0)" xlink:href="#bA"/><use transform="matrix(0.06944444444444445,0,0,0.06944444444444445,423.54166666666674,0)" xlink:href="#bl"/><use transform="matrix(0.06944444444444445,0,0,0.06944444444444445,503.4027777777778,0)" xlink:href="#bj"/></g><g id="aK"><use transform="matrix(0.06944444444444445,0,0,0.06944444444444445,0,0)" xlink:href="#bd"/><use transform="matrix(0.06944444444444445,0,0,0.06944444444444445,91.80555555555556,0)" xlink:href="#bq"/><use transform="matrix(0.06944444444444445,0,0,0.06944444444444445,175.90277777777777,0)" xlink:href="#be"/></g><g id="aL"><use transform="matrix(0.06944444444444445,0,0,0.06944444444444445,0,0)" xlink:href="#bA"/><use transform="matrix(0.06944444444444445,0,0,0.06944444444444445,55.76388888888889,0)" xlink:href="#bo"/><use transform="matrix(0.06944444444444445,0,0,0.06944444444444445,90.20833333333334,0)" xlink:href="#bs"/><use transform="matrix(0.06944444444444445,0,0,0.06944444444444445,177.43055555555557,0)" xlink:href="#bq"/><use transform="matrix(0.06944444444444445,0,0,0.06944444444444445,261.5277777777778,0)" xlink:href="#bg"/></g><g id="aM"><use transform="matrix(0.06944444444444445,0,0,0.06944444444444445,0,0)" xlink:href="#bo"/><use transform="matrix(0.06944444444444445,0,0,0.06944444444444445,34.44444444444444,0)" xlink:href="#bm"/><use transform="matrix(0.06944444444444445,0,0,0.06944444444444445,159.02777777777777,0)" xlink:href="#bl"/><use transform="matrix(0.06944444444444445,0,0,0.06944444444444445,238.88888888888889,0)" xlink:href="#bs"/><use transform="matrix(0.06944444444444445,0,0,0.06944444444444445,326.1111111111111,0)" xlink:href="#be"/></g><g id="aN"><use transform="matrix(0.06944444444444445,0,0,0.06944444444444445,0,0)" xlink:href="#bq"/><use transform="matrix(0.06944444444444445,0,0,0.06944444444444445,84.09722222222223,0)" xlink:href="#bl"/><use transform="matrix(0.06944444444444445,0,0,0.06944444444444445,163.95833333333334,0)" xlink:href="#bF"/></g><g id="aO"><use transform="matrix(0.06944444444444445,0,0,0.06944444444444445,0,0)" xlink:href="#bA"/><use transform="matrix(0.06944444444444445,0,0,0.06944444444444445,51.18055555555556,0)" xlink:href="#be"/><use transform="matrix(0.06944444444444445,0,0,0.06944444444444445,134.09722222222223,0)" xlink:href="#bv"/></g><g id="aP"><use transform="matrix(0.06944444444444445,0,0,0.06944444444444445,0,0)" xlink:href="#bz"/><use transform="matrix(0.06944444444444445,0,0,0.06944444444444445,82.50000000000001,0)" xlink:href="#bn"/><use transform="matrix(0.06944444444444445,0,0,0.06944444444444445,159.65277777777777,0)" xlink:href="#be"/><use transform="matrix(0.06944444444444445,0,0,0.06944444444444445,242.56944444444446,0)" xlink:href="#bA"/><use transform="matrix(0.06944444444444445,0,0,0.06944444444444445,298.33333333333337,0)" xlink:href="#by"/><use transform="matrix(0.06944444444444445,0,0,0.06944444444444445,332.7777777777778,0)" xlink:href="#bl"/><use transform="matrix(0.06944444444444445,0,0,0.06944444444444445,410.55555555555566,0)" xlink:href="#br"/><use transform="matrix(0.06944444444444445,0,0,0.06944444444444445,484.2361111111112,0)" xlink:href="#bj"/></g><g id="aQ"><use transform="matrix(0.06944444444444445,0,0,0.06944444444444445,0,0)" xlink:href="#bk"/><use transform="matrix(0.06944444444444445,0,0,0.06944444444444445,91.25,0)" xlink:href="#bq"/><use transform="matrix(0.06944444444444445,0,0,0.06944444444444445,175.34722222222223,0)" xlink:href="#bz"/><use transform="matrix(0.06944444444444445,0,0,0.06944444444444445,260.625,0)" xlink:href="#bE"/><use transform="matrix(0.06944444444444445,0,0,0.06944444444444445,344.72222222222223,0)" xlink:href="#by"/><use transform="matrix(0.06944444444444445,0,0,0.06944444444444445,379.1666666666667,0)" xlink:href="#bv"/></g><g id="aR"><use transform="matrix(0.06944444444444445,0,0,0.06944444444444445,0,0)" xlink:href="#bg"/><use transform="matrix(0.06944444444444445,0,0,0.06944444444444445,46.52777777777778,0)" xlink:href="#bq"/><use transform="matrix(0.06944444444444445,0,0,0.06944444444444445,130.625,0)" xlink:href="#be"/></g><g id="aS"><use transform="matrix(0.06944444444444445,0,0,0.06944444444444445,0,0)" xlink:href="#bL"/><use transform="matrix(0.06944444444444445,0,0,0.06944444444444445,87.08333333333334,0)" xlink:href="#be"/></g><g id="aT"><use transform="matrix(0.06944444444444445,0,0,0.06944444444444445,0,0)" xlink:href="#bn"/><use transform="matrix(0.06944444444444445,0,0,0.06944444444444445,79.93055555555556,0)" xlink:href="#bo"/><use transform="matrix(0.06944444444444445,0,0,0.06944444444444445,114.375,0)" xlink:href="#bF"/><use transform="matrix(0.06944444444444445,0,0,0.06944444444444445,189.44444444444446,0)" xlink:href="#bo"/><use transform="matrix(0.06944444444444445,0,0,0.06944444444444445,223.88888888888889,0)" xlink:href="#bL"/><use transform="matrix(0.06944444444444445,0,0,0.06944444444444445,310.9722222222223,0)" xlink:href="#by"/><use transform="matrix(0.06944444444444445,0,0,0.06944444444444445,345.41666666666674,0)" xlink:href="#be"/></g><g id="aU"><use transform="matrix(0.06944444444444445,0,0,0.06944444444444445,0,0)" xlink:href="#bo"/><use transform="matrix(0.06944444444444445,0,0,0.06944444444444445,34.44444444444444,0)" xlink:href="#bu"/></g><g id="aV"><use transform="matrix(0.06944444444444445,0,0,0.06944444444444445,0,0)" xlink:href="#bg"/><use transform="matrix(0.06944444444444445,0,0,0.06944444444444445,46.52777777777778,0)" xlink:href="#bq"/><use transform="matrix(0.06944444444444445,0,0,0.06944444444444445,130.625,0)" xlink:href="#be"/></g><g id="aW"><use transform="matrix(0.06944444444444445,0,0,0.06944444444444445,0,0)" xlink:href="#bE"/><use transform="matrix(0.06944444444444445,0,0,0.06944444444444445,84.09722222222223,0)" xlink:href="#bF"/><use transform="matrix(0.06944444444444445,0,0,0.06944444444444445,159.16666666666669,0)" xlink:href="#be"/><use transform="matrix(0.06944444444444445,0,0,0.06944444444444445,242.08333333333337,0)" xlink:href="#bA"/><use transform="matrix(0.06944444444444445,0,0,0.06944444444444445,297.8472222222223,0)" xlink:href="#bM"/><use transform="matrix(0.06944444444444445,0,0,0.06944444444444445,324.0277777777778,0)" xlink:href="#bF"/></g><g id="aX"><use transform="matrix(0.06944444444444445,0,0,0.06944444444444445,0,0)" xlink:href="#bH"/><use transform="matrix(0.06944444444444445,0,0,0.06944444444444445,81.25,0)" xlink:href="#bE"/><use transform="matrix(0.06944444444444445,0,0,0.06944444444444445,165.34722222222223,0)" xlink:href="#bA"/><use transform="matrix(0.06944444444444445,0,0,0.06944444444444445,221.11111111111114,0)" xlink:href="#bA"/><use transform="matrix(0.06944444444444445,0,0,0.06944444444444445,272.2916666666667,0)" xlink:href="#be"/><use transform="matrix(0.06944444444444445,0,0,0.06944444444444445,355.20833333333337,0)" xlink:href="#bu"/><use transform="matrix(0.06944444444444445,0,0,0.06944444444444445,439.23611111111114,0)" xlink:href="#bg"/></g><g id="aY"><use transform="matrix(0.06944444444444445,0,0,0.06944444444444445,0,0)" xlink:href="#bJ"/><use transform="matrix(0.06944444444444445,0,0,0.06944444444444445,52.63888888888889,0)" xlink:href="#bo"/><use transform="matrix(0.06944444444444445,0,0,0.06944444444444445,87.08333333333334,0)" xlink:href="#be"/><use transform="matrix(0.06944444444444445,0,0,0.06944444444444445,170,0)" xlink:href="#by"/><use transform="matrix(0.06944444444444445,0,0,0.06944444444444445,204.44444444444446,0)" xlink:href="#bv"/></g><g id="aZ"><use transform="matrix(0.06944444444444445,0,0,0.06944444444444445,0,0)" xlink:href="#bz"/><use transform="matrix(0.06944444444444445,0,0,0.06944444444444445,85.27777777777779,0)" xlink:href="#bJ"/></g><g id="ba"><use transform="matrix(0.06944444444444445,0,0,0.06944444444444445,0,0)" xlink:href="#bn"/><use transform="matrix(0.06944444444444445,0,0,0.06944444444444445,79.93055555555556,0)" xlink:href="#bo"/><use transform="matrix(0.06944444444444445,0,0,0.06944444444444445,114.375,0)" xlink:href="#be"/><use transform="matrix(0.06944444444444445,0,0,0.06944444444444445,194.72222222222223,0)" xlink:href="#bp"/><use transform="matrix(0.06944444444444445,0,0,0.06944444444444445,311.11111111111114,0)" xlink:href="#bN"/></g><image width="10" height="10" id="cn" xlink:href="https://images.lucid.app/images/ffc37502-1282-4dae-8212-ce2c8b26c8ea/content" preserveAspectRatio="none"/><pattern id="bb" patternUnits="userSpaceOnUse" x="-10349.49" y="3019.06" width="366.68" height="366.68"><use xlink:href="#cn" transform="translate(0, 0) scale(36.66751121773554,36.66751121773554)"/></pattern><use transform="matrix(0.08680555555555555,0,0,0.08680555555555555,0,0)" xlink:href="#bQ" id="bc"/></defs></g></svg>